{
  "title" : "",
  "description" : "",
  "author" : "",
  "width" : 1280.0,
  "height" : 720.0,
  "version" : "0.5",
  "editRate" : 30,
  "authoringClientName" :  {
    "name" : "Camtasia Studio",
    "platform" : "Windows",
    "version" : "9.0"
  },
  "sourceBin" : [
    {
      "id" : 1,
      "src" : "C:\\Users\\edwar\\Documents\\Camtasia Studio\\Rec 06-13-18.trec",
      "rect" : [0, 0, 788, 576],
      "lastMod" : "20180613T194114",
      "sourceTracks" : [
        {
          "range" : [0, 456],
          "type" : 0,
          "editRate" : 30,
          "trackRect" : [0, 0, 788, 576],
          "sampleRate" : 29,
          "bitDepth" : 0,
          "numChannels" : 0,
          "metaData" : "Rec 06-13-18.trec;"
        },
        {
          "range" : [0, 662528],
          "type" : 2,
          "editRate" : 44100,
          "trackRect" : [0, 0, 0, 0],
          "sampleRate" : 44100,
          "bitDepth" : 16,
          "numChannels" : 2,
          "metaData" : ""
        },
        {
          "range" : [0, 669696],
          "type" : 2,
          "editRate" : 44100,
          "trackRect" : [0, 0, 0, 0],
          "sampleRate" : 44100,
          "bitDepth" : 16,
          "numChannels" : 2,
          "metaData" : ""
        }
      ]
    },
    {
      "id" : 2,
      "src" : "C:\\Users\\edwar\\Documents\\Camtasia Studio\\Rec 06-13-18 1.trec",
      "rect" : [0, 0, 1232, 664],
      "lastMod" : "20180613T195223",
      "sourceTracks" : [
        {
          "range" : [0, 2323],
          "type" : 0,
          "editRate" : 30,
          "trackRect" : [0, 0, 1232, 664],
          "sampleRate" : 28,
          "bitDepth" : 0,
          "numChannels" : 0,
          "metaData" : "Rec 06-13-18 1.trec;"
        },
        {
          "range" : [0, 3397632],
          "type" : 2,
          "editRate" : 44100,
          "trackRect" : [0, 0, 0, 0],
          "sampleRate" : 44100,
          "bitDepth" : 16,
          "numChannels" : 2,
          "metaData" : ""
        },
        {
          "range" : [0, 3417088],
          "type" : 2,
          "editRate" : 44100,
          "trackRect" : [0, 0, 0, 0],
          "sampleRate" : 44100,
          "bitDepth" : 16,
          "numChannels" : 2,
          "metaData" : ""
        }
      ]
    },
    {
      "id" : 3,
      "src" : "C:\\Users\\edwar\\Documents\\Camtasia Studio\\Rec 06-13-18 3.trec",
      "rect" : [0, 0, 1336, 748],
      "lastMod" : "20180613T201150",
      "sourceTracks" : [
        {
          "range" : [0, 2291],
          "type" : 0,
          "editRate" : 30,
          "trackRect" : [0, 0, 1336, 748],
          "sampleRate" : 28,
          "bitDepth" : 0,
          "numChannels" : 0,
          "metaData" : "Rec 06-13-18 3.trec;"
        },
        {
          "range" : [0, 3353600],
          "type" : 2,
          "editRate" : 44100,
          "trackRect" : [0, 0, 0, 0],
          "sampleRate" : 44100,
          "bitDepth" : 16,
          "numChannels" : 2,
          "metaData" : ""
        },
        {
          "range" : [0, 3368960],
          "type" : 2,
          "editRate" : 44100,
          "trackRect" : [0, 0, 0, 0],
          "sampleRate" : 44100,
          "bitDepth" : 16,
          "numChannels" : 2,
          "metaData" : ""
        }
      ]
    },
    {
      "id" : 4,
      "src" : "C:\\Users\\edwar\\Documents\\Camtasia Studio\\Rec 06-13-18 4.trec",
      "rect" : [0, 0, 1336, 748],
      "lastMod" : "20180613T204441",
      "sourceTracks" : [
        {
          "range" : [0, 402],
          "type" : 0,
          "editRate" : 30,
          "trackRect" : [0, 0, 1336, 748],
          "sampleRate" : 27,
          "bitDepth" : 0,
          "numChannels" : 0,
          "metaData" : "Rec 06-13-18 4.trec;"
        },
        {
          "range" : [0, 574464],
          "type" : 2,
          "editRate" : 44100,
          "trackRect" : [0, 0, 0, 0],
          "sampleRate" : 44100,
          "bitDepth" : 16,
          "numChannels" : 2,
          "metaData" : ""
        },
        {
          "range" : [0, 588800],
          "type" : 2,
          "editRate" : 44100,
          "trackRect" : [0, 0, 0, 0],
          "sampleRate" : 44100,
          "bitDepth" : 16,
          "numChannels" : 2,
          "metaData" : ""
        }
      ]
    },
    {
      "id" : 5,
      "src" : "C:\\Users\\edwar\\Documents\\Camtasia Studio\\Rec 06-13-18 5.trec",
      "rect" : [0, 0, 504, 392],
      "lastMod" : "20180613T205318",
      "sourceTracks" : [
        {
          "range" : [0, 1385],
          "type" : 0,
          "editRate" : 30,
          "trackRect" : [0, 0, 504, 392],
          "sampleRate" : 29,
          "bitDepth" : 0,
          "numChannels" : 0,
          "metaData" : "Rec 06-13-18 5.trec;"
        },
        {
          "range" : [0, 2030592],
          "type" : 2,
          "editRate" : 44100,
          "trackRect" : [0, 0, 0, 0],
          "sampleRate" : 44100,
          "bitDepth" : 16,
          "numChannels" : 2,
          "metaData" : ""
        },
        {
          "range" : [0, 2031616],
          "type" : 2,
          "editRate" : 44100,
          "trackRect" : [0, 0, 0, 0],
          "sampleRate" : 44100,
          "bitDepth" : 16,
          "numChannels" : 2,
          "metaData" : ""
        }
      ]
    },
    {
      "id" : 6,
      "src" : "C:\\Users\\edwar\\Documents\\Camtasia Studio\\Rec 06-13-18 6.trec",
      "rect" : [0, 0, 992, 680],
      "lastMod" : "20180613T212359",
      "sourceTracks" : [
        {
          "range" : [0, 778],
          "type" : 0,
          "editRate" : 30,
          "trackRect" : [0, 0, 992, 680],
          "sampleRate" : 29,
          "bitDepth" : 0,
          "numChannels" : 0,
          "metaData" : "Rec 06-13-18 6.trec;"
        },
        {
          "range" : [0, 1126400],
          "type" : 2,
          "editRate" : 44100,
          "trackRect" : [0, 0, 0, 0],
          "sampleRate" : 44100,
          "bitDepth" : 16,
          "numChannels" : 2,
          "metaData" : ""
        },
        {
          "range" : [0, 1143808],
          "type" : 2,
          "editRate" : 44100,
          "trackRect" : [0, 0, 0, 0],
          "sampleRate" : 44100,
          "bitDepth" : 16,
          "numChannels" : 2,
          "metaData" : ""
        }
      ]
    },
    {
      "id" : 7,
      "src" : "C:\\Users\\edwar\\Documents\\Camtasia Studio\\Rec 06-13-18 7.trec",
      "rect" : [0, 0, 1356, 724],
      "lastMod" : "20180613T215137",
      "sourceTracks" : [
        {
          "range" : [0, 2162],
          "type" : 0,
          "editRate" : 30,
          "trackRect" : [0, 0, 1356, 724],
          "sampleRate" : 27,
          "bitDepth" : 0,
          "numChannels" : 0,
          "metaData" : "Rec 06-13-18 7.trec;"
        },
        {
          "range" : [0, 3176448],
          "type" : 2,
          "editRate" : 44100,
          "trackRect" : [0, 0, 0, 0],
          "sampleRate" : 44100,
          "bitDepth" : 16,
          "numChannels" : 2,
          "metaData" : ""
        },
        {
          "range" : [0, 3178496],
          "type" : 2,
          "editRate" : 44100,
          "trackRect" : [0, 0, 0, 0],
          "sampleRate" : 44100,
          "bitDepth" : 16,
          "numChannels" : 2,
          "metaData" : ""
        }
      ]
    },
    {
      "id" : 8,
      "src" : "C:\\Users\\edwar\\Documents\\Camtasia Studio\\Rec 06-13-18 8.trec",
      "rect" : [0, 0, 660, 488],
      "lastMod" : "20180613T220328",
      "sourceTracks" : [
        {
          "range" : [0, 664],
          "type" : 0,
          "editRate" : 30,
          "trackRect" : [0, 0, 660, 488],
          "sampleRate" : 29,
          "bitDepth" : 0,
          "numChannels" : 0,
          "metaData" : "Rec 06-13-18 8.trec;"
        },
        {
          "range" : [0, 971776],
          "type" : 2,
          "editRate" : 44100,
          "trackRect" : [0, 0, 0, 0],
          "sampleRate" : 44100,
          "bitDepth" : 16,
          "numChannels" : 2,
          "metaData" : ""
        },
        {
          "range" : [0, 977920],
          "type" : 2,
          "editRate" : 44100,
          "trackRect" : [0, 0, 0, 0],
          "sampleRate" : 44100,
          "bitDepth" : 16,
          "numChannels" : 2,
          "metaData" : ""
        }
      ]
    },
    {
      "id" : 9,
      "src" : "C:\\Users\\edwar\\Documents\\Camtasia Studio\\Rec 06-13-18 9.trec",
      "rect" : [0, 0, 660, 488],
      "lastMod" : "20180613T221025",
      "sourceTracks" : [
        {
          "range" : [0, 718],
          "type" : 0,
          "editRate" : 30,
          "trackRect" : [0, 0, 660, 488],
          "sampleRate" : 29,
          "bitDepth" : 0,
          "numChannels" : 0,
          "metaData" : "Rec 06-13-18 9.trec;"
        },
        {
          "range" : [0, 1038336],
          "type" : 2,
          "editRate" : 44100,
          "trackRect" : [0, 0, 0, 0],
          "sampleRate" : 44100,
          "bitDepth" : 16,
          "numChannels" : 2,
          "metaData" : ""
        },
        {
          "range" : [0, 1050624],
          "type" : 2,
          "editRate" : 44100,
          "trackRect" : [0, 0, 0, 0],
          "sampleRate" : 44100,
          "bitDepth" : 16,
          "numChannels" : 2,
          "metaData" : ""
        }
      ]
    },
    {
      "id" : 10,
      "src" : "C:\\Users\\edwar\\Documents\\Camtasia Studio\\Rec 06-13-18 10.trec",
      "rect" : [0, 0, 1004, 608],
      "lastMod" : "20180613T221623",
      "sourceTracks" : [
        {
          "range" : [0, 711],
          "type" : 0,
          "editRate" : 30,
          "trackRect" : [0, 0, 1004, 608],
          "sampleRate" : 29,
          "bitDepth" : 0,
          "numChannels" : 0,
          "metaData" : "Rec 06-13-18 10.trec;"
        },
        {
          "range" : [0, 1038336],
          "type" : 2,
          "editRate" : 44100,
          "trackRect" : [0, 0, 0, 0],
          "sampleRate" : 44100,
          "bitDepth" : 16,
          "numChannels" : 2,
          "metaData" : ""
        },
        {
          "range" : [0, 1058816],
          "type" : 2,
          "editRate" : 44100,
          "trackRect" : [0, 0, 0, 0],
          "sampleRate" : 44100,
          "bitDepth" : 16,
          "numChannels" : 2,
          "metaData" : ""
        }
      ]
    },
    {
      "id" : 11,
      "src" : "C:\\Users\\edwar\\Documents\\Camtasia Studio\\Rec 06-13-18 13.trec",
      "rect" : [0, 0, 1364, 768],
      "lastMod" : "20180614T030928",
      "sourceTracks" : [
        {
          "range" : [0, 1618],
          "type" : 0,
          "editRate" : 30,
          "trackRect" : [0, 0, 1364, 768],
          "sampleRate" : 27,
          "bitDepth" : 0,
          "numChannels" : 0,
          "metaData" : "Rec 06-13-18 13.trec;"
        },
        {
          "range" : [0, 2382848],
          "type" : 2,
          "editRate" : 44100,
          "trackRect" : [0, 0, 0, 0],
          "sampleRate" : 44100,
          "bitDepth" : 16,
          "numChannels" : 2,
          "metaData" : ""
        },
        {
          "range" : [0, 2379776],
          "type" : 2,
          "editRate" : 44100,
          "trackRect" : [0, 0, 0, 0],
          "sampleRate" : 44100,
          "bitDepth" : 16,
          "numChannels" : 2,
          "metaData" : ""
        }
      ]
    },
    {
      "id" : 12,
      "src" : "C:\\Users\\edwar\\Documents\\Camtasia Studio\\Rec 06-13-18 14.trec",
      "rect" : [0, 0, 1364, 768],
      "lastMod" : "20180614T031427",
      "sourceTracks" : [
        {
          "range" : [0, 1894],
          "type" : 0,
          "editRate" : 30,
          "trackRect" : [0, 0, 1364, 768],
          "sampleRate" : 27,
          "bitDepth" : 0,
          "numChannels" : 0,
          "metaData" : "Rec 06-13-18 14.trec;"
        },
        {
          "range" : [0, 2780160],
          "type" : 2,
          "editRate" : 44100,
          "trackRect" : [0, 0, 0, 0],
          "sampleRate" : 44100,
          "bitDepth" : 16,
          "numChannels" : 2,
          "metaData" : ""
        },
        {
          "range" : [0, 2785280],
          "type" : 2,
          "editRate" : 44100,
          "trackRect" : [0, 0, 0, 0],
          "sampleRate" : 44100,
          "bitDepth" : 16,
          "numChannels" : 2,
          "metaData" : ""
        }
      ]
    }
  ],
  "timeline" : {
    "id" : 13,
    "sceneTrack" : {
      "scenes" : [
        {
          "duration" : 223.133333333333,
          "title" : "",
          "type" : "",
          "csml" : {
            "tracks" : [
              {
                "trackIndex" : 0,
                "medias" : [
                  {
                    "id" : 14,
                    "_type" : "UnifiedMedia",
                    "video" : 
                        {
                          "id" : 15,
                          "_type" : "ScreenVMFile",
                          "src" : 12,
                          "trackNumber" : 0,
                          "attributes" : {
                            "ident" : "Rec 06-13-18 14"
                          },
                          "parameters" : {
                            "translation0" : {
                              "type" : "double",
                              "defaultValue" : -1.79610992745438e-10,
                              "interp" : "eioe"
                            },
                            "translation1" : {
                              "type" : "double",
                              "defaultValue" : -1.07718278741231e-11,
                              "interp" : "eioe"
                            },
                            "scale0" : {
                              "type" : "double",
                              "defaultValue" : 0.886480497965181,
                              "interp" : "eioe"
                            },
                            "scale1" : {
                              "type" : "double",
                              "defaultValue" : 0.886480497965181,
                              "interp" : "eioe"
                            },
                            "cursorScale" : {
                              "type" : "double",
                              "defaultValue" : 1.0,
                              "interp" : "linr"
                            },
                            "cursorOpacity" : {
                              "type" : "double",
                              "defaultValue" : 1.0,
                              "interp" : "linr"
                            }
                          },
                          "effects" : [

                          ],
                          "start" : 0,
                          "duration" : 778,
                          "mediaStart" : 1108,
                          "mediaDuration" : 778,
                          "scalar" : 1,
                          "animationTracks" : {

                          }
                        },
                    "audio" : 
                        {
                          "id" : 16,
                          "_type" : "AMFile",
                          "src" : 12,
                          "trackNumber" : 2,
                          "attributes" : {
                            "ident" : "",
                            "sampleRate" : 44100,
                            "bitDepth" : 16,
                            "gain" : 1.0,
                            "mixToMono" : false
                          },
                            "channelNumber" : "0,1",
                          "effects" : [

                          ],
                          "start" : 0,
                          "duration" : 778,
                          "mediaStart" : 1108,
                          "mediaDuration" : 778,
                          "scalar" : 1,
                          "animationTracks" : {

                          }
                        }
,
                    "start" : 0,
                    "duration" : 778,
                    "mediaStart" : 0,
                    "mediaDuration" : 1894,
                    "scalar" : 1,
                    "metadata" : {
                      "AutoAppliedSmartFocus" : "False",
                      "WinSubProjectDisplayName" : "",
                      "clipSpeedAttribute" : false,
                      "default-scale0" : 0.577712609970675,
                      "default-scale1" : 0.577712609970675,
                      "default-translation0" : 0.0,
                      "default-translation1" : 0.0
                    }
                  }
                ]
              },
              {
                "trackIndex" : 1,
                "medias" : [
                  {
                    "id" : 17,
                    "_type" : "AMFile",
                    "src" : 12,
                    "trackNumber" : 1,
                    "attributes" : {
                      "ident" : "Rec 06-13-18 14",
                      "sampleRate" : 44100,
                      "bitDepth" : 16,
                      "gain" : 1.0,
                      "mixToMono" : false
                    },
                      "channelNumber" : "0,1",
                    "effects" : [

                    ],
                    "start" : 0,
                    "duration" : 778,
                    "mediaStart" : 1108,
                    "mediaDuration" : 778,
                    "scalar" : 1,
                    "metadata" : {
                      "WinSubProjectDisplayName" : "",
                      "clipSpeedAttribute" : false
                    },
                    "animationTracks" : {

                    }
                  }
                ]
              },
              {
                "trackIndex" : 2,
                "medias" : [
                  {
                    "id" : 18,
                    "_type" : "UnifiedMedia",
                    "video" : 
                        {
                          "id" : 19,
                          "_type" : "ScreenVMFile",
                          "src" : 4,
                          "trackNumber" : 0,
                          "attributes" : {
                            "ident" : "Rec 06-13-18 4"
                          },
                          "parameters" : {
                            "translation0" : {
                              "type" : "double",
                              "defaultValue" : 3.43440831329644e-11,
                              "interp" : "eioe"
                            },
                            "translation1" : {
                              "type" : "double",
                              "defaultValue" : -1.92148519317925e-11,
                              "interp" : "eioe"
                            },
                            "scale0" : {
                              "type" : "double",
                              "defaultValue" : 0.958083832335382,
                              "interp" : "eioe"
                            },
                            "scale1" : {
                              "type" : "double",
                              "defaultValue" : 0.958083832335383,
                              "interp" : "eioe"
                            },
                            "cursorScale" : {
                              "type" : "double",
                              "defaultValue" : 1.0,
                              "interp" : "linr"
                            },
                            "cursorOpacity" : {
                              "type" : "double",
                              "defaultValue" : 1.0,
                              "interp" : "linr"
                            }
                          },
                          "effects" : [

                          ],
                          "start" : 778,
                          "duration" : 342,
                          "mediaStart" : 59,
                          "mediaDuration" : 342,
                          "scalar" : 1,
                          "animationTracks" : {

                          }
                        },
                    "audio" : 
                        {
                          "id" : 20,
                          "_type" : "AMFile",
                          "src" : 4,
                          "trackNumber" : 2,
                          "attributes" : {
                            "ident" : "",
                            "sampleRate" : 44100,
                            "bitDepth" : 16,
                            "gain" : 1.0,
                            "mixToMono" : false
                          },
                            "channelNumber" : "0,1",
                          "effects" : [

                          ],
                          "start" : 778,
                          "duration" : 342,
                          "mediaStart" : 59,
                          "mediaDuration" : 342,
                          "scalar" : 1,
                          "animationTracks" : {

                          }
                        }
,
                    "start" : 778,
                    "duration" : 342,
                    "mediaStart" : 0,
                    "mediaDuration" : 401,
                    "scalar" : 1,
                    "metadata" : {
                      "AutoAppliedSmartFocus" : "False",
                      "WinSubProjectDisplayName" : "",
                      "clipSpeedAttribute" : false,
                      "default-scale0" : 0.589820359281437,
                      "default-scale1" : 0.589820359281437,
                      "default-translation0" : 0.0,
                      "default-translation1" : 0.0
                    }
                  },
                  {
                    "id" : 21,
                    "_type" : "StitchedMedia",
                    "minMediaStart" : 0,
                    "attributes" : {
                      "ident" : "Rec 06-13-18 5",
                      "gain" : 1.0,
                      "mixToMono" : false
                    },
                    "parameters" : {
                      "translation0" : -4.11972678193706e-11,
                      "translation1" : 3.20170556733501e-11,
                      "scale0" : 1.83673469387759,
                      "scale1" : 1.83673469387759,
                      "volume" : 1.0,
                      "cursorOpacity" : 1.0,
                      "cursorScale" : 1.0
                    },
                    "medias" : [
                        {
                          "id" : 22,
                          "_type" : "UnifiedMedia",
                          "video" : 
                              {
                                "id" : 23,
                                "_type" : "ScreenVMFile",
                                "src" : 5,
                                "trackNumber" : 0,
                                "attributes" : {
                                  "ident" : "Rec 06-13-18 5"
                                },
                                "parameters" : {
                                  "cursorScale" : {
                                    "type" : "double",
                                    "defaultValue" : 0.0,
                                    "interp" : "linr"
                                  },
                                  "cursorOpacity" : {
                                    "type" : "double",
                                    "defaultValue" : 0.0,
                                    "interp" : "linr"
                                  }
                                },
                                "effects" : [

                                ],
                                "start" : 0,
                                "duration" : 794,
                                "mediaStart" : 0,
                                "mediaDuration" : 794,
                                "scalar" : 1,
                                "animationTracks" : {

                                }
                              },
                          "audio" : 
                              {
                                "id" : 24,
                                "_type" : "AMFile",
                                "src" : 5,
                                "trackNumber" : 2,
                                "attributes" : {
                                  "ident" : "",
                                  "sampleRate" : 44100,
                                  "bitDepth" : 16,
                                  "gain" : 1.0,
                                  "mixToMono" : false
                                },
                                  "channelNumber" : "0,1",
                                "effects" : [

                                ],
                                "start" : 0,
                                "duration" : 794,
                                "mediaStart" : 0,
                                "mediaDuration" : 794,
                                "scalar" : 1,
                                "animationTracks" : {

                                }
                              }
,
                          "start" : 0,
                          "duration" : 794,
                          "mediaStart" : 0,
                          "mediaDuration" : 1382,
                          "scalar" : 1,
                          "metadata" : {
                            "AutoAppliedSmartFocus" : "False",
                            "WinSubProjectDisplayName" : "",
                            "clipSpeedAttribute" : false
                          }
                        },
                        {
                          "id" : 25,
                          "_type" : "UnifiedMedia",
                          "video" : 
                              {
                                "id" : 26,
                                "_type" : "ScreenVMFile",
                                "src" : 5,
                                "trackNumber" : 0,
                                "attributes" : {
                                  "ident" : "Rec 06-13-18 5"
                                },
                                "parameters" : {
                                  "cursorScale" : {
                                    "type" : "double",
                                    "defaultValue" : 0.0,
                                    "interp" : "linr"
                                  },
                                  "cursorOpacity" : {
                                    "type" : "double",
                                    "defaultValue" : 0.0,
                                    "interp" : "linr"
                                  }
                                },
                                "effects" : [

                                ],
                                "start" : 794,
                                "duration" : 490,
                                "mediaStart" : 892,
                                "mediaDuration" : 490,
                                "scalar" : 1,
                                "animationTracks" : {

                                }
                              },
                          "audio" : 
                              {
                                "id" : 27,
                                "_type" : "AMFile",
                                "src" : 5,
                                "trackNumber" : 2,
                                "attributes" : {
                                  "ident" : "",
                                  "sampleRate" : 44100,
                                  "bitDepth" : 16,
                                  "gain" : 1.0,
                                  "mixToMono" : false
                                },
                                  "channelNumber" : "0,1",
                                "effects" : [

                                ],
                                "start" : 794,
                                "duration" : 490,
                                "mediaStart" : 892,
                                "mediaDuration" : 490,
                                "scalar" : 1,
                                "animationTracks" : {

                                }
                              }
,
                          "start" : 794,
                          "duration" : 490,
                          "mediaStart" : 0,
                          "mediaDuration" : 1382,
                          "scalar" : 1,
                          "metadata" : {
                            "AutoAppliedSmartFocus" : "False",
                            "WinSubProjectDisplayName" : "",
                            "clipSpeedAttribute" : false
                          }
                        }
                    ],
                    "effects" : [

                    ],
                    "start" : 1120,
                    "duration" : 970,
                    "mediaStart" : 0,
                    "mediaDuration" : 970,
                    "scalar" : 1,
                    "metadata" : {
                      "AutoAppliedSmartFocus" : "False",
                      "WinSubProjectDisplayName" : "",
                      "clipSpeedAttribute" : false,
                      "default-scale0" : 1.0,
                      "default-scale1" : 1.0,
                      "default-translation0" : 0.0,
                      "default-translation1" : 0.0
                    },
                    "animationTracks" : {

                    }
                  },
                  {
                    "id" : 28,
                    "_type" : "UnifiedMedia",
                    "video" : 
                        {
                          "id" : 29,
                          "_type" : "ScreenVMFile",
                          "src" : 6,
                          "trackNumber" : 0,
                          "attributes" : {
                            "ident" : "Rec 06-13-18 6"
                          },
                          "parameters" : {
                            "translation0" : {
                              "type" : "double",
                              "defaultValue" : 3.43476358466432e-11,
                              "interp" : "eioe"
                            },
                            "translation1" : {
                              "type" : "double",
                              "defaultValue" : -2.35544916904473e-11,
                              "interp" : "eioe"
                            },
                            "scale0" : {
                              "type" : "double",
                              "defaultValue" : 1.05882352941211,
                              "interp" : "eioe"
                            },
                            "scale1" : {
                              "type" : "double",
                              "defaultValue" : 1.05882352941211,
                              "interp" : "eioe"
                            },
                            "cursorScale" : {
                              "type" : "double",
                              "defaultValue" : 1.0,
                              "interp" : "linr"
                            },
                            "cursorOpacity" : {
                              "type" : "double",
                              "defaultValue" : 1.0,
                              "interp" : "linr"
                            }
                          },
                          "effects" : [

                          ],
                          "start" : 2090,
                          "duration" : 731,
                          "mediaStart" : 0,
                          "mediaDuration" : 731,
                          "scalar" : 1,
                          "animationTracks" : {

                          }
                        },
                    "audio" : 
                        {
                          "id" : 30,
                          "_type" : "AMFile",
                          "src" : 6,
                          "trackNumber" : 2,
                          "attributes" : {
                            "ident" : "",
                            "sampleRate" : 44100,
                            "bitDepth" : 16,
                            "gain" : 1.0,
                            "mixToMono" : false
                          },
                            "channelNumber" : "0,1",
                          "effects" : [

                          ],
                          "start" : 2090,
                          "duration" : 731,
                          "mediaStart" : 0,
                          "mediaDuration" : 731,
                          "scalar" : 1,
                          "animationTracks" : {

                          }
                        }
,
                    "start" : 2090,
                    "duration" : 731,
                    "mediaStart" : 0,
                    "mediaDuration" : 778,
                    "scalar" : 1,
                    "metadata" : {
                      "AutoAppliedSmartFocus" : "False",
                      "WinSubProjectDisplayName" : "",
                      "clipSpeedAttribute" : false,
                      "default-scale0" : 0.794354838709677,
                      "default-scale1" : 0.794354838709677,
                      "default-translation0" : 0.0,
                      "default-translation1" : 0.0
                    }
                  },
                  {
                    "id" : 31,
                    "_type" : "StitchedMedia",
                    "minMediaStart" : 0,
                    "attributes" : {
                      "ident" : "Rec 06-13-18 7",
                      "gain" : 1.0,
                      "mixToMono" : false
                    },
                    "parameters" : {
                      "translation0" : 1.5688783605583e-11,
                      "translation1" : -4.97482055550336e-11,
                      "scale0" : 0.874290346898925,
                      "scale1" : 0.874290346898924,
                      "volume" : 1.0,
                      "cursorOpacity" : 1.0,
                      "cursorScale" : 1.0
                    },
                    "medias" : [
                        {
                          "id" : 32,
                          "_type" : "UnifiedMedia",
                          "video" : 
                              {
                                "id" : 33,
                                "_type" : "ScreenVMFile",
                                "src" : 7,
                                "trackNumber" : 0,
                                "attributes" : {
                                  "ident" : "Rec 06-13-18 7"
                                },
                                "parameters" : {
                                  "cursorScale" : {
                                    "type" : "double",
                                    "defaultValue" : 0.0,
                                    "interp" : "linr"
                                  },
                                  "cursorOpacity" : {
                                    "type" : "double",
                                    "defaultValue" : 0.0,
                                    "interp" : "linr"
                                  }
                                },
                                "effects" : [

                                ],
                                "start" : 0,
                                "duration" : 519,
                                "mediaStart" : 0,
                                "mediaDuration" : 519,
                                "scalar" : 1,
                                "animationTracks" : {

                                }
                              },
                          "audio" : 
                              {
                                "id" : 34,
                                "_type" : "AMFile",
                                "src" : 7,
                                "trackNumber" : 2,
                                "attributes" : {
                                  "ident" : "",
                                  "sampleRate" : 44100,
                                  "bitDepth" : 16,
                                  "gain" : 1.0,
                                  "mixToMono" : false
                                },
                                  "channelNumber" : "0,1",
                                "effects" : [

                                ],
                                "start" : 0,
                                "duration" : 519,
                                "mediaStart" : 0,
                                "mediaDuration" : 519,
                                "scalar" : 1,
                                "animationTracks" : {

                                }
                              }
,
                          "start" : 0,
                          "duration" : 519,
                          "mediaStart" : 0,
                          "mediaDuration" : 2162,
                          "scalar" : 1,
                          "metadata" : {
                            "AutoAppliedSmartFocus" : "False",
                            "WinSubProjectDisplayName" : "",
                            "clipSpeedAttribute" : false
                          }
                        },
                        {
                          "id" : 35,
                          "_type" : "UnifiedMedia",
                          "video" : 
                              {
                                "id" : 36,
                                "_type" : "ScreenVMFile",
                                "src" : 7,
                                "trackNumber" : 0,
                                "attributes" : {
                                  "ident" : "Rec 06-13-18 7"
                                },
                                "parameters" : {
                                  "cursorScale" : {
                                    "type" : "double",
                                    "defaultValue" : 0.0,
                                    "interp" : "linr"
                                  },
                                  "cursorOpacity" : {
                                    "type" : "double",
                                    "defaultValue" : 0.0,
                                    "interp" : "linr"
                                  }
                                },
                                "effects" : [

                                ],
                                "start" : 519,
                                "duration" : 632,
                                "mediaStart" : 568,
                                "mediaDuration" : 632,
                                "scalar" : 1,
                                "animationTracks" : {

                                }
                              },
                          "audio" : 
                              {
                                "id" : 37,
                                "_type" : "AMFile",
                                "src" : 7,
                                "trackNumber" : 2,
                                "attributes" : {
                                  "ident" : "",
                                  "sampleRate" : 44100,
                                  "bitDepth" : 16,
                                  "gain" : 1.0,
                                  "mixToMono" : false
                                },
                                  "channelNumber" : "0,1",
                                "effects" : [

                                ],
                                "start" : 519,
                                "duration" : 632,
                                "mediaStart" : 568,
                                "mediaDuration" : 632,
                                "scalar" : 1,
                                "animationTracks" : {

                                }
                              }
,
                          "start" : 519,
                          "duration" : 632,
                          "mediaStart" : 0,
                          "mediaDuration" : 2162,
                          "scalar" : 1,
                          "metadata" : {
                            "AutoAppliedSmartFocus" : "False",
                            "WinSubProjectDisplayName" : "",
                            "clipSpeedAttribute" : false
                          }
                        },
                        {
                          "id" : 38,
                          "_type" : "UnifiedMedia",
                          "video" : 
                              {
                                "id" : 39,
                                "_type" : "ScreenVMFile",
                                "src" : 7,
                                "trackNumber" : 0,
                                "attributes" : {
                                  "ident" : "Rec 06-13-18 7"
                                },
                                "parameters" : {
                                  "cursorScale" : {
                                    "type" : "double",
                                    "defaultValue" : 0.0,
                                    "interp" : "linr"
                                  },
                                  "cursorOpacity" : {
                                    "type" : "double",
                                    "defaultValue" : 0.0,
                                    "interp" : "linr"
                                  }
                                },
                                "effects" : [

                                ],
                                "start" : 1151,
                                "duration" : 1,
                                "mediaStart" : 2161,
                                "mediaDuration" : 1,
                                "scalar" : 1,
                                "animationTracks" : {

                                }
                              },
                          "audio" : 
                              {
                                "id" : 40,
                                "_type" : "AMFile",
                                "src" : 7,
                                "trackNumber" : 2,
                                "attributes" : {
                                  "ident" : "",
                                  "sampleRate" : 44100,
                                  "bitDepth" : 16,
                                  "gain" : 1.0,
                                  "mixToMono" : false
                                },
                                  "channelNumber" : "0,1",
                                "effects" : [

                                ],
                                "start" : 1151,
                                "duration" : 1,
                                "mediaStart" : 2161,
                                "mediaDuration" : 1,
                                "scalar" : 1,
                                "animationTracks" : {

                                }
                              }
,
                          "start" : 1151,
                          "duration" : 1,
                          "mediaStart" : 0,
                          "mediaDuration" : 2162,
                          "scalar" : 1,
                          "metadata" : {
                            "AutoAppliedSmartFocus" : "False",
                            "WinSubProjectDisplayName" : "",
                            "clipSpeedAttribute" : false
                          }
                        }
                    ],
                    "effects" : [

                    ],
                    "start" : 2821,
                    "duration" : 1152,
                    "mediaStart" : 0,
                    "mediaDuration" : 1152,
                    "scalar" : 1,
                    "metadata" : {
                      "AutoAppliedSmartFocus" : "False",
                      "WinSubProjectDisplayName" : "",
                      "clipSpeedAttribute" : false,
                      "default-scale0" : 0.581120943952802,
                      "default-scale1" : 0.581120943952802,
                      "default-translation0" : 0.0,
                      "default-translation1" : 0.0
                    },
                    "animationTracks" : {

                    }
                  },
                  {
                    "id" : 41,
                    "_type" : "StitchedMedia",
                    "minMediaStart" : 0,
                    "attributes" : {
                      "ident" : "Rec 06-13-18 8",
                      "gain" : 1.0,
                      "mixToMono" : false
                    },
                    "parameters" : {
                      "translation0" : -7.68204346144948,
                      "translation1" : 5.68005637755658,
                      "scale0" : 1.38545962869359,
                      "scale1" : 1.38545962869359,
                      "volume" : 1.0,
                      "cursorOpacity" : 1.0,
                      "cursorScale" : 1.0
                    },
                    "medias" : [
                        {
                          "id" : 42,
                          "_type" : "UnifiedMedia",
                          "video" : 
                              {
                                "id" : 43,
                                "_type" : "ScreenVMFile",
                                "src" : 8,
                                "trackNumber" : 0,
                                "attributes" : {
                                  "ident" : "Rec 06-13-18 8"
                                },
                                "parameters" : {
                                  "cursorScale" : {
                                    "type" : "double",
                                    "defaultValue" : 0.0,
                                    "interp" : "linr"
                                  },
                                  "cursorOpacity" : {
                                    "type" : "double",
                                    "defaultValue" : 0.0,
                                    "interp" : "linr"
                                  }
                                },
                                "effects" : [

                                ],
                                "start" : 0,
                                "duration" : 576,
                                "mediaStart" : 0,
                                "mediaDuration" : 576,
                                "scalar" : 1,
                                "animationTracks" : {

                                }
                              },
                          "audio" : 
                              {
                                "id" : 44,
                                "_type" : "AMFile",
                                "src" : 8,
                                "trackNumber" : 2,
                                "attributes" : {
                                  "ident" : "",
                                  "sampleRate" : 44100,
                                  "bitDepth" : 16,
                                  "gain" : 1.0,
                                  "mixToMono" : false
                                },
                                  "channelNumber" : "0,1",
                                "effects" : [

                                ],
                                "start" : 0,
                                "duration" : 576,
                                "mediaStart" : 0,
                                "mediaDuration" : 576,
                                "scalar" : 1,
                                "animationTracks" : {

                                }
                              }
,
                          "start" : 0,
                          "duration" : 576,
                          "mediaStart" : 0,
                          "mediaDuration" : 664,
                          "scalar" : 1,
                          "metadata" : {
                            "AutoAppliedSmartFocus" : "False",
                            "WinSubProjectDisplayName" : "",
                            "clipSpeedAttribute" : false
                          }
                        },
                        {
                          "id" : 45,
                          "_type" : "UnifiedMedia",
                          "video" : 
                              {
                                "id" : 46,
                                "_type" : "ScreenVMFile",
                                "src" : 8,
                                "trackNumber" : 0,
                                "attributes" : {
                                  "ident" : "Rec 06-13-18 8"
                                },
                                "parameters" : {
                                  "cursorScale" : {
                                    "type" : "double",
                                    "defaultValue" : 0.0,
                                    "interp" : "linr"
                                  },
                                  "cursorOpacity" : {
                                    "type" : "double",
                                    "defaultValue" : 0.0,
                                    "interp" : "linr"
                                  }
                                },
                                "effects" : [

                                ],
                                "start" : 576,
                                "duration" : 3,
                                "mediaStart" : 661,
                                "mediaDuration" : 3,
                                "scalar" : 1,
                                "animationTracks" : {

                                }
                              },
                          "audio" : 
                              {
                                "id" : 47,
                                "_type" : "AMFile",
                                "src" : 8,
                                "trackNumber" : 2,
                                "attributes" : {
                                  "ident" : "",
                                  "sampleRate" : 44100,
                                  "bitDepth" : 16,
                                  "gain" : 1.0,
                                  "mixToMono" : false
                                },
                                  "channelNumber" : "0,1",
                                "effects" : [

                                ],
                                "start" : 576,
                                "duration" : 3,
                                "mediaStart" : 661,
                                "mediaDuration" : 3,
                                "scalar" : 1,
                                "animationTracks" : {

                                }
                              }
,
                          "start" : 576,
                          "duration" : 3,
                          "mediaStart" : 0,
                          "mediaDuration" : 664,
                          "scalar" : 1,
                          "metadata" : {
                            "AutoAppliedSmartFocus" : "False",
                            "WinSubProjectDisplayName" : "",
                            "clipSpeedAttribute" : false
                          }
                        }
                    ],
                    "effects" : [

                    ],
                    "start" : 3973,
                    "duration" : 579,
                    "mediaStart" : 0,
                    "mediaDuration" : 579,
                    "scalar" : 1,
                    "metadata" : {
                      "AutoAppliedSmartFocus" : "False",
                      "WinSubProjectDisplayName" : "",
                      "clipSpeedAttribute" : false,
                      "default-scale0" : 1.0,
                      "default-scale1" : 1.0,
                      "default-translation0" : 0.0,
                      "default-translation1" : 0.0
                    },
                    "animationTracks" : {

                    }
                  },
                  {
                    "id" : 48,
                    "_type" : "UnifiedMedia",
                    "video" : 
                        {
                          "id" : 49,
                          "_type" : "ScreenVMFile",
                          "src" : 9,
                          "trackNumber" : 0,
                          "attributes" : {
                            "ident" : "Rec 06-13-18 9"
                          },
                          "parameters" : {
                            "translation0" : {
                              "type" : "double",
                              "defaultValue" : -4.53678993531118,
                              "interp" : "eioe"
                            },
                            "translation1" : {
                              "type" : "double",
                              "defaultValue" : 3.35447498250574,
                              "interp" : "eioe"
                            },
                            "scale0" : {
                              "type" : "double",
                              "defaultValue" : 1.39499069998503,
                              "interp" : "eioe"
                            },
                            "scale1" : {
                              "type" : "double",
                              "defaultValue" : 1.39499069998503,
                              "interp" : "eioe"
                            },
                            "cursorScale" : {
                              "type" : "double",
                              "defaultValue" : 1.0,
                              "interp" : "linr"
                            },
                            "cursorOpacity" : {
                              "type" : "double",
                              "defaultValue" : 1.0,
                              "interp" : "linr"
                            }
                          },
                          "effects" : [

                          ],
                          "start" : 4552,
                          "duration" : 674,
                          "mediaStart" : 0,
                          "mediaDuration" : 674,
                          "scalar" : 1,
                          "animationTracks" : {

                          }
                        },
                    "audio" : 
                        {
                          "id" : 50,
                          "_type" : "AMFile",
                          "src" : 9,
                          "trackNumber" : 2,
                          "attributes" : {
                            "ident" : "",
                            "sampleRate" : 44100,
                            "bitDepth" : 16,
                            "gain" : 1.0,
                            "mixToMono" : false
                          },
                            "channelNumber" : "0,1",
                          "effects" : [

                          ],
                          "start" : 4552,
                          "duration" : 674,
                          "mediaStart" : 0,
                          "mediaDuration" : 674,
                          "scalar" : 1,
                          "animationTracks" : {

                          }
                        }
,
                    "start" : 4552,
                    "duration" : 674,
                    "mediaStart" : 0,
                    "mediaDuration" : 715,
                    "scalar" : 1,
                    "metadata" : {
                      "AutoAppliedSmartFocus" : "False",
                      "WinSubProjectDisplayName" : "",
                      "clipSpeedAttribute" : false,
                      "default-scale0" : 1.0,
                      "default-scale1" : 1.0,
                      "default-translation0" : 0.0,
                      "default-translation1" : 0.0
                    }
                  },
                  {
                    "id" : 51,
                    "_type" : "UnifiedMedia",
                    "video" : 
                        {
                          "id" : 52,
                          "_type" : "ScreenVMFile",
                          "src" : 10,
                          "trackNumber" : 0,
                          "attributes" : {
                            "ident" : "Rec 06-13-18 10"
                          },
                          "parameters" : {
                            "translation0" : {
                              "type" : "double",
                              "defaultValue" : -0.803243574560611,
                              "interp" : "eioe"
                            },
                            "translation1" : {
                              "type" : "double",
                              "defaultValue" : 0.486426387781712,
                              "interp" : "eioe"
                            },
                            "scale0" : {
                              "type" : "double",
                              "defaultValue" : 1.13070789059145,
                              "interp" : "eioe"
                            },
                            "scale1" : {
                              "type" : "double",
                              "defaultValue" : 1.13070789059145,
                              "interp" : "eioe"
                            },
                            "cursorScale" : {
                              "type" : "double",
                              "defaultValue" : 1.0,
                              "interp" : "linr"
                            },
                            "cursorOpacity" : {
                              "type" : "double",
                              "defaultValue" : 1.0,
                              "interp" : "linr"
                            }
                          },
                          "effects" : [

                          ],
                          "start" : 5226,
                          "duration" : 711,
                          "mediaStart" : 0,
                          "mediaDuration" : 711,
                          "scalar" : 1,
                          "animationTracks" : {

                          }
                        },
                    "audio" : 
                        {
                          "id" : 53,
                          "_type" : "AMFile",
                          "src" : 10,
                          "trackNumber" : 2,
                          "attributes" : {
                            "ident" : "",
                            "sampleRate" : 44100,
                            "bitDepth" : 16,
                            "gain" : 1.0,
                            "mixToMono" : false
                          },
                            "channelNumber" : "0,1",
                          "effects" : [

                          ],
                          "start" : 5226,
                          "duration" : 711,
                          "mediaStart" : 0,
                          "mediaDuration" : 711,
                          "scalar" : 1,
                          "animationTracks" : {

                          }
                        }
,
                    "start" : 5226,
                    "duration" : 711,
                    "mediaStart" : 0,
                    "mediaDuration" : 711,
                    "scalar" : 1,
                    "metadata" : {
                      "AutoAppliedSmartFocus" : "False",
                      "WinSubProjectDisplayName" : "",
                      "clipSpeedAttribute" : false,
                      "default-scale0" : 0.784860557768924,
                      "default-scale1" : 0.784860557768924,
                      "default-translation0" : 0.0,
                      "default-translation1" : 0.0
                    }
                  },
                  {
                    "id" : 54,
                    "_type" : "UnifiedMedia",
                    "video" : 
                        {
                          "id" : 55,
                          "_type" : "ScreenVMFile",
                          "src" : 11,
                          "trackNumber" : 0,
                          "attributes" : {
                            "ident" : "Rec 06-13-18 13"
                          },
                          "parameters" : {
                            "translation0" : {
                              "type" : "double",
                              "defaultValue" : 4.13032945777762,
                              "interp" : "eioe"
                            },
                            "translation1" : {
                              "type" : "double",
                              "defaultValue" : -2.32558139558154,
                              "interp" : "eioe"
                            },
                            "scale0" : {
                              "type" : "double",
                              "defaultValue" : 0.868410284389437,
                              "interp" : "eioe"
                            },
                            "scale1" : {
                              "type" : "double",
                              "defaultValue" : 0.868410284389437,
                              "interp" : "eioe"
                            },
                            "cursorScale" : {
                              "type" : "double",
                              "defaultValue" : 1.0,
                              "interp" : "linr"
                            },
                            "cursorOpacity" : {
                              "type" : "double",
                              "defaultValue" : 1.0,
                              "interp" : "linr"
                            }
                          },
                          "effects" : [

                          ],
                          "start" : 5937,
                          "duration" : 754,
                          "mediaStart" : 864,
                          "mediaDuration" : 754,
                          "scalar" : 1,
                          "animationTracks" : {

                          }
                        },
                    "audio" : 
                        {
                          "id" : 56,
                          "_type" : "AMFile",
                          "src" : 11,
                          "trackNumber" : 2,
                          "attributes" : {
                            "ident" : "",
                            "sampleRate" : 44100,
                            "bitDepth" : 16,
                            "gain" : 1.0,
                            "mixToMono" : false
                          },
                            "channelNumber" : "0,1",
                          "effects" : [

                          ],
                          "start" : 5937,
                          "duration" : 754,
                          "mediaStart" : 864,
                          "mediaDuration" : 754,
                          "scalar" : 1,
                          "animationTracks" : {

                          }
                        }
,
                    "start" : 5937,
                    "duration" : 754,
                    "mediaStart" : 0,
                    "mediaDuration" : 1618,
                    "scalar" : 1,
                    "metadata" : {
                      "AutoAppliedSmartFocus" : "False",
                      "WinSubProjectDisplayName" : "",
                      "clipSpeedAttribute" : false,
                      "default-scale0" : 0.577712609970675,
                      "default-scale1" : 0.577712609970675,
                      "default-translation0" : 0.0,
                      "default-translation1" : 0.0
                    }
                  }
                ]
              },
              {
                "trackIndex" : 3,
                "medias" : [
                  {
                    "id" : 57,
                    "_type" : "AMFile",
                    "src" : 4,
                    "trackNumber" : 1,
                    "attributes" : {
                      "ident" : "Rec 06-13-18 4",
                      "sampleRate" : 44100,
                      "bitDepth" : 16,
                      "gain" : 1.0,
                      "mixToMono" : false
                    },
                      "channelNumber" : "0,1",
                    "effects" : [

                    ],
                    "start" : 778,
                    "duration" : 332,
                    "mediaStart" : 59,
                    "mediaDuration" : 332,
                    "scalar" : 1,
                    "metadata" : {
                      "WinSubProjectDisplayName" : "",
                      "clipSpeedAttribute" : false
                    },
                    "animationTracks" : {

                    }
                  },
                  {
                    "id" : 58,
                    "_type" : "StitchedMedia",
                    "minMediaStart" : 0,
                    "attributes" : {
                      "ident" : "Rec 06-13-18 5",
                      "gain" : 1.0,
                      "mixToMono" : false
                    },
                    "parameters" : {
                      "volume" : 1.0,
                      "cursorOpacity" : 1.0,
                      "cursorScale" : 1.0
                    },
                    "medias" : [
                        {
                          "id" : 59,
                          "_type" : "AMFile",
                          "src" : 5,
                          "trackNumber" : 1,
                          "attributes" : {
                            "ident" : "Rec 06-13-18 5",
                            "sampleRate" : 44100,
                            "bitDepth" : 16,
                            "gain" : 1.0,
                            "mixToMono" : false
                          },
                            "channelNumber" : "0,1",
                          "effects" : [

                          ],
                          "start" : 0,
                          "duration" : 794,
                          "mediaStart" : 0,
                          "mediaDuration" : 794,
                          "scalar" : 1,
                          "metadata" : {
                            "WinSubProjectDisplayName" : "",
                            "clipSpeedAttribute" : false
                          },
                          "animationTracks" : {

                          }
                        },
                        {
                          "id" : 60,
                          "_type" : "AMFile",
                          "src" : 5,
                          "trackNumber" : 1,
                          "attributes" : {
                            "ident" : "Rec 06-13-18 5",
                            "sampleRate" : 44100,
                            "bitDepth" : 16,
                            "gain" : 1.0,
                            "mixToMono" : false
                          },
                            "channelNumber" : "0,1",
                          "effects" : [

                          ],
                          "start" : 794,
                          "duration" : 489,
                          "mediaStart" : 892,
                          "mediaDuration" : 489,
                          "scalar" : 1,
                          "metadata" : {
                            "WinSubProjectDisplayName" : "",
                            "clipSpeedAttribute" : false
                          },
                          "animationTracks" : {

                          }
                        }
                    ],
                    "effects" : [

                    ],
                    "start" : 1120,
                    "duration" : 970,
                    "mediaStart" : 0,
                    "mediaDuration" : 970,
                    "scalar" : 1,
                    "metadata" : {
                      "WinSubProjectDisplayName" : "",
                      "clipSpeedAttribute" : false
                    },
                    "animationTracks" : {

                    }
                  },
                  {
                    "id" : 61,
                    "_type" : "AMFile",
                    "src" : 6,
                    "trackNumber" : 1,
                    "attributes" : {
                      "ident" : "Rec 06-13-18 6",
                      "sampleRate" : 44100,
                      "bitDepth" : 16,
                      "gain" : 1.0,
                      "mixToMono" : false
                    },
                      "channelNumber" : "0,1",
                    "effects" : [

                    ],
                    "start" : 2090,
                    "duration" : 731,
                    "mediaStart" : 0,
                    "mediaDuration" : 731,
                    "scalar" : 1,
                    "metadata" : {
                      "WinSubProjectDisplayName" : "",
                      "clipSpeedAttribute" : false
                    },
                    "animationTracks" : {

                    }
                  },
                  {
                    "id" : 62,
                    "_type" : "StitchedMedia",
                    "minMediaStart" : 0,
                    "attributes" : {
                      "ident" : "Rec 06-13-18 7",
                      "gain" : 1.0,
                      "mixToMono" : false
                    },
                    "parameters" : {
                      "volume" : 1.0,
                      "cursorOpacity" : 1.0,
                      "cursorScale" : 1.0
                    },
                    "medias" : [
                        {
                          "id" : 63,
                          "_type" : "AMFile",
                          "src" : 7,
                          "trackNumber" : 1,
                          "attributes" : {
                            "ident" : "Rec 06-13-18 7",
                            "sampleRate" : 44100,
                            "bitDepth" : 16,
                            "gain" : 1.0,
                            "mixToMono" : false
                          },
                            "channelNumber" : "0,1",
                          "effects" : [

                          ],
                          "start" : 0,
                          "duration" : 519,
                          "mediaStart" : 0,
                          "mediaDuration" : 519,
                          "scalar" : 1,
                          "metadata" : {
                            "WinSubProjectDisplayName" : "",
                            "clipSpeedAttribute" : false
                          },
                          "animationTracks" : {

                          }
                        },
                        {
                          "id" : 64,
                          "_type" : "AMFile",
                          "src" : 7,
                          "trackNumber" : 1,
                          "attributes" : {
                            "ident" : "Rec 06-13-18 7",
                            "sampleRate" : 44100,
                            "bitDepth" : 16,
                            "gain" : 1.0,
                            "mixToMono" : false
                          },
                            "channelNumber" : "0,1",
                          "effects" : [

                          ],
                          "start" : 519,
                          "duration" : 1593,
                          "mediaStart" : 568,
                          "mediaDuration" : 1593,
                          "scalar" : 1,
                          "metadata" : {
                            "WinSubProjectDisplayName" : "",
                            "clipSpeedAttribute" : false
                          },
                          "animationTracks" : {

                          }
                        }
                    ],
                    "effects" : [

                    ],
                    "start" : 2821,
                    "duration" : 1151,
                    "mediaStart" : 0,
                    "mediaDuration" : 1151,
                    "scalar" : 1,
                    "metadata" : {
                      "WinSubProjectDisplayName" : "",
                      "clipSpeedAttribute" : false
                    },
                    "animationTracks" : {

                    }
                  },
                  {
                    "id" : 65,
                    "_type" : "AMFile",
                    "src" : 8,
                    "trackNumber" : 1,
                    "attributes" : {
                      "ident" : "Rec 06-13-18 8",
                      "sampleRate" : 44100,
                      "bitDepth" : 16,
                      "gain" : 1.0,
                      "mixToMono" : false
                    },
                      "channelNumber" : "0,1",
                    "effects" : [

                    ],
                    "start" : 3973,
                    "duration" : 576,
                    "mediaStart" : 0,
                    "mediaDuration" : 576,
                    "scalar" : 1,
                    "metadata" : {
                      "WinSubProjectDisplayName" : "",
                      "clipSpeedAttribute" : false
                    },
                    "animationTracks" : {

                    }
                  },
                  {
                    "id" : 66,
                    "_type" : "AMFile",
                    "src" : 9,
                    "trackNumber" : 1,
                    "attributes" : {
                      "ident" : "Rec 06-13-18 9",
                      "sampleRate" : 44100,
                      "bitDepth" : 16,
                      "gain" : 1.0,
                      "mixToMono" : false
                    },
                      "channelNumber" : "0,1",
                    "effects" : [

                    ],
                    "start" : 4552,
                    "duration" : 674,
                    "mediaStart" : 0,
                    "mediaDuration" : 674,
                    "scalar" : 1,
                    "metadata" : {
                      "WinSubProjectDisplayName" : "",
                      "clipSpeedAttribute" : false
                    },
                    "animationTracks" : {

                    }
                  },
                  {
                    "id" : 67,
                    "_type" : "AMFile",
                    "src" : 10,
                    "trackNumber" : 1,
                    "attributes" : {
                      "ident" : "Rec 06-13-18 10",
                      "sampleRate" : 44100,
                      "bitDepth" : 16,
                      "gain" : 1.0,
                      "mixToMono" : false
                    },
                      "channelNumber" : "0,1",
                    "effects" : [

                    ],
                    "start" : 5226,
                    "duration" : 706,
                    "mediaStart" : 0,
                    "mediaDuration" : 706,
                    "scalar" : 1,
                    "metadata" : {
                      "WinSubProjectDisplayName" : "",
                      "clipSpeedAttribute" : false
                    },
                    "animationTracks" : {

                    }
                  },
                  {
                    "id" : 68,
                    "_type" : "AMFile",
                    "src" : 11,
                    "trackNumber" : 1,
                    "attributes" : {
                      "ident" : "Rec 06-13-18 13",
                      "sampleRate" : 44100,
                      "bitDepth" : 16,
                      "gain" : 1.0,
                      "mixToMono" : false
                    },
                      "channelNumber" : "0,1",
                    "effects" : [

                    ],
                    "start" : 5937,
                    "duration" : 757,
                    "mediaStart" : 864,
                    "mediaDuration" : 757,
                    "scalar" : 1,
                    "metadata" : {
                      "WinSubProjectDisplayName" : "",
                      "clipSpeedAttribute" : false
                    },
                    "animationTracks" : {

                    }
                  }
                ]
              },
              {
                "trackIndex" : 4,
                "medias" : [
                  {
                    "id" : 69,
                    "_type" : "Callout",
                    "def" : {
                      "kind" : "TypeWinSVG",
                      "shape" : "",
                      "style" : "",
                      "DrawTime" : 1.0,
                      "borderColorBlue" : 0.0,
                      "borderColorGreen" : 0.0,
                      "borderColorRed" : 1.0,
                      "borderWidth" : 5.0,
                      "flipOnXAxis" : 0.0,
                      "flipOnYAxis" : 0.0,
                      "height" : 144.0,
                      "width" : 197.0,
                      "filename" : "C:\\Program Files\\TechSmith\\Camtasia 9\\Media\\Studio\\Callouts\\anim_drawnsquare.svg",
                      "horizontal-alignment" : "center",
                      "name" : "Sketch Motion Rectangle",
                      "vertical-alignment" : "center",
                      "xmlContent" : "﻿<?xml version=\"1.0\" encoding=\"utf-8\"?>\n<!-- Generator: Adobe Illustrator 13.0.2, SVG Export Plug-In . SVG Version: 6.00 Build 14948)  -->\n<!DOCTYPE svg PUBLIC \"-//W3C//DTD SVG 1.1//EN\" \"http://www.w3.org/Graphics/SVG/1.1/DTD/svg11.dtd\">\n<svg version=\"1.1\" id=\"Layer_1\" xmlns=\"http://www.w3.org/2000/svg\" xmlns:xlink=\"http://www.w3.org/1999/xlink\" x=\"0px\" y=\"0px\"\n\t width=\"296.633px\" height=\"227.883px\" viewBox=\"0 0 296.633 227.883\" enable-background=\"new 0 0 296.633 227.883\"\n\t xml:space=\"preserve\">\n<path fill=\"none\" d=\"M2.662,1.793c8.266,53.25,2.802,171.963,5.305,226.067\"/>\n<path fill=\"none\" d=\"M1.031,222.146c67.199-9.078,213.034,6.17,279.931-5.306\"/>\n<path fill=\"none\" d=\"M290.581,0.007c-0.5,33.125-2.356,191.708-11.658,223.363\"/>\n<path fill=\"none\" d=\"M0.07,10.703C127.409-7.206,237.174,4.794,296.602,8.604\"/>\n</svg>\n",
                      "textAttributes" : {
                        "type" : "textAttributeList",
                        "keyframes" : [
                          {
                            "time" : 0,
                            "value" : null,
                            "duration" : 0
                          }
                        ]
                      }
                    },
                    "attributes" : {
                      "autoRotateText" : true
                    },
                    "parameters" : {
                      "translation0" : -386.666666666588,
                      "translation1" : 313.107776694605,
                      "scale0" : 1.05508991460954,
                      "scale1" : 0.241771087454491
                    },
                    "leftEdgeMods" : [
                      {
                        "group" : "DrawPercentageFade",
                        "duration" : 30,
                        "parameters" : [
                          {
                            "name" : "DrawTime",
                              "func" : "FadeInFunc"
                            }
                        ]
                      }
                    ],
                    "effects" : [
                        {
                          "effectName" : "DropShadow",
                          "category" : "categoryVisualEffects",
                          "parameters" : {
                            "angle" : 5.49778714378214,
                            "blur" : 10.0,
                            "color-alpha" : 1.0,
                            "color-blue" : 0.1216,
                            "color-green" : 0.1216,
                            "color-red" : 0.1216,
                            "enabled" : 1,
                            "offset" : 10.0,
                            "opacity" : 0.4
                          }
                        }
                    ],
                    "start" : 957,
                    "duration" : 103,
                    "mediaStart" : -3,
                    "mediaDuration" : 103,
                    "scalar" : 1,
                    "metadata" : {
                      "WinSubProjectDisplayName" : "",
                      "clipSpeedAttribute" : false,
                      "default-scale0" : 1.0,
                      "default-scale1" : 1.0,
                      "default-translation0" : 0.0,
                      "default-translation1" : 0.0
                    },
                    "animationTracks" : {

                    }
                  },
                  {
                    "id" : 70,
                    "_type" : "Callout",
                    "def" : {
                      "kind" : "TypeWinSVG",
                      "shape" : "",
                      "style" : "",
                      "DrawTime" : 1.0,
                      "borderColorBlue" : 0.0,
                      "borderColorGreen" : 0.0,
                      "borderColorRed" : 1.0,
                      "borderWidth" : 5.0,
                      "flipOnXAxis" : 0.0,
                      "flipOnYAxis" : 0.0,
                      "height" : 144.0,
                      "width" : 197.0,
                      "filename" : "C:\\Program Files\\TechSmith\\Camtasia 9\\Media\\Studio\\Callouts\\anim_drawnsquare.svg",
                      "horizontal-alignment" : "center",
                      "name" : "Sketch Motion Rectangle",
                      "vertical-alignment" : "center",
                      "xmlContent" : "﻿<?xml version=\"1.0\" encoding=\"utf-8\"?>\n<!-- Generator: Adobe Illustrator 13.0.2, SVG Export Plug-In . SVG Version: 6.00 Build 14948)  -->\n<!DOCTYPE svg PUBLIC \"-//W3C//DTD SVG 1.1//EN\" \"http://www.w3.org/Graphics/SVG/1.1/DTD/svg11.dtd\">\n<svg version=\"1.1\" id=\"Layer_1\" xmlns=\"http://www.w3.org/2000/svg\" xmlns:xlink=\"http://www.w3.org/1999/xlink\" x=\"0px\" y=\"0px\"\n\t width=\"296.633px\" height=\"227.883px\" viewBox=\"0 0 296.633 227.883\" enable-background=\"new 0 0 296.633 227.883\"\n\t xml:space=\"preserve\">\n<path fill=\"none\" d=\"M2.662,1.793c8.266,53.25,2.802,171.963,5.305,226.067\"/>\n<path fill=\"none\" d=\"M1.031,222.146c67.199-9.078,213.034,6.17,279.931-5.306\"/>\n<path fill=\"none\" d=\"M290.581,0.007c-0.5,33.125-2.356,191.708-11.658,223.363\"/>\n<path fill=\"none\" d=\"M0.07,10.703C127.409-7.206,237.174,4.794,296.602,8.604\"/>\n</svg>\n",
                      "textAttributes" : {
                        "type" : "textAttributeList",
                        "keyframes" : [
                          {
                            "time" : 0,
                            "value" : null,
                            "duration" : 0
                          }
                        ]
                      }
                    },
                    "attributes" : {
                      "autoRotateText" : true
                    },
                    "parameters" : {
                      "translation0" : -369.586563307513,
                      "translation1" : -118.511627906962,
                      "scale0" : 1.53227350830951,
                      "scale1" : 0.601636520240544
                    },
                    "leftEdgeMods" : [
                      {
                        "group" : "DrawPercentageFade",
                        "duration" : 30,
                        "parameters" : [
                          {
                            "name" : "DrawTime",
                              "func" : "FadeInFunc"
                            }
                        ]
                      }
                    ],
                    "effects" : [
                        {
                          "effectName" : "DropShadow",
                          "category" : "categoryVisualEffects",
                          "parameters" : {
                            "angle" : 5.49778714378214,
                            "blur" : 10.0,
                            "color-alpha" : 1.0,
                            "color-blue" : 0.1216,
                            "color-green" : 0.1216,
                            "color-red" : 0.1216,
                            "enabled" : 1,
                            "offset" : 10.0,
                            "opacity" : 0.4
                          }
                        }
                    ],
                    "start" : 1060,
                    "duration" : 64,
                    "mediaStart" : 0,
                    "mediaDuration" : 64,
                    "scalar" : 1,
                    "metadata" : {
                      "WinSubProjectDisplayName" : "",
                      "clipSpeedAttribute" : false,
                      "default-scale0" : 1.0,
                      "default-scale1" : 1.0,
                      "default-translation0" : 0.0,
                      "default-translation1" : 0.0
                    },
                    "animationTracks" : {

                    }
                  },
                  {
                    "id" : 71,
                    "_type" : "Callout",
                    "def" : {
                      "kind" : "TypeWinSVG",
                      "shape" : "",
                      "style" : "",
                      "DrawTime" : 1.0,
                      "borderColorBlue" : 0.0,
                      "borderColorGreen" : 0.0,
                      "borderColorRed" : 1.0,
                      "borderWidth" : 5.0,
                      "flipOnXAxis" : 0.0,
                      "flipOnYAxis" : 0.0,
                      "height" : 144.0,
                      "width" : 197.0,
                      "filename" : "C:\\Program Files\\TechSmith\\Camtasia 9\\Media\\Studio\\Callouts\\anim_drawnsquare.svg",
                      "horizontal-alignment" : "center",
                      "name" : "Sketch Motion Rectangle",
                      "vertical-alignment" : "center",
                      "xmlContent" : "﻿<?xml version=\"1.0\" encoding=\"utf-8\"?>\n<!-- Generator: Adobe Illustrator 13.0.2, SVG Export Plug-In . SVG Version: 6.00 Build 14948)  -->\n<!DOCTYPE svg PUBLIC \"-//W3C//DTD SVG 1.1//EN\" \"http://www.w3.org/Graphics/SVG/1.1/DTD/svg11.dtd\">\n<svg version=\"1.1\" id=\"Layer_1\" xmlns=\"http://www.w3.org/2000/svg\" xmlns:xlink=\"http://www.w3.org/1999/xlink\" x=\"0px\" y=\"0px\"\n\t width=\"296.633px\" height=\"227.883px\" viewBox=\"0 0 296.633 227.883\" enable-background=\"new 0 0 296.633 227.883\"\n\t xml:space=\"preserve\">\n<path fill=\"none\" d=\"M2.662,1.793c8.266,53.25,2.802,171.963,5.305,226.067\"/>\n<path fill=\"none\" d=\"M1.031,222.146c67.199-9.078,213.034,6.17,279.931-5.306\"/>\n<path fill=\"none\" d=\"M290.581,0.007c-0.5,33.125-2.356,191.708-11.658,223.363\"/>\n<path fill=\"none\" d=\"M0.07,10.703C127.409-7.206,237.174,4.794,296.602,8.604\"/>\n</svg>\n",
                      "textAttributes" : {
                        "type" : "textAttributeList",
                        "keyframes" : [
                          {
                            "time" : 0,
                            "value" : null,
                            "duration" : 0
                          }
                        ]
                      }
                    },
                    "attributes" : {
                      "autoRotateText" : true
                    },
                    "parameters" : {
                      "translation0" : -258.655684754572,
                      "translation1" : 46.366925064479,
                      "scale0" : 1.31270740696903,
                      "scale1" : 0.291559000860407
                    },
                    "leftEdgeMods" : [
                      {
                        "group" : "DrawPercentageFade",
                        "duration" : 30,
                        "parameters" : [
                          {
                            "name" : "DrawTime",
                              "func" : "FadeInFunc"
                            }
                        ]
                      }
                    ],
                    "effects" : [
                        {
                          "effectName" : "DropShadow",
                          "category" : "categoryVisualEffects",
                          "parameters" : {
                            "angle" : 5.49778714378214,
                            "blur" : 10.0,
                            "color-alpha" : 1.0,
                            "color-blue" : 0.1216,
                            "color-green" : 0.1216,
                            "color-red" : 0.1216,
                            "enabled" : 1,
                            "offset" : 10.0,
                            "opacity" : 0.4
                          }
                        }
                    ],
                    "start" : 1749,
                    "duration" : 52,
                    "mediaStart" : 98,
                    "mediaDuration" : 52,
                    "scalar" : 1,
                    "metadata" : {
                      "WinSubProjectDisplayName" : "",
                      "clipSpeedAttribute" : false,
                      "default-scale0" : 1.0,
                      "default-scale1" : 1.0,
                      "default-translation0" : 0.0,
                      "default-translation1" : 0.0
                    },
                    "animationTracks" : {

                    }
                  },
                  {
                    "id" : 72,
                    "_type" : "Callout",
                    "def" : {
                      "kind" : "TypeWinSVG",
                      "shape" : "",
                      "style" : "",
                      "DrawTime" : 1.0,
                      "borderColorBlue" : 0.0,
                      "borderColorGreen" : 0.0,
                      "borderColorRed" : 1.0,
                      "borderWidth" : 5.0,
                      "flipOnXAxis" : 0.0,
                      "flipOnYAxis" : 0.0,
                      "height" : 144.0,
                      "width" : 197.0,
                      "filename" : "C:\\Program Files\\TechSmith\\Camtasia 9\\Media\\Studio\\Callouts\\anim_drawnsquare.svg",
                      "horizontal-alignment" : "center",
                      "name" : "Sketch Motion Rectangle",
                      "vertical-alignment" : "center",
                      "xmlContent" : "﻿<?xml version=\"1.0\" encoding=\"utf-8\"?>\n<!-- Generator: Adobe Illustrator 13.0.2, SVG Export Plug-In . SVG Version: 6.00 Build 14948)  -->\n<!DOCTYPE svg PUBLIC \"-//W3C//DTD SVG 1.1//EN\" \"http://www.w3.org/Graphics/SVG/1.1/DTD/svg11.dtd\">\n<svg version=\"1.1\" id=\"Layer_1\" xmlns=\"http://www.w3.org/2000/svg\" xmlns:xlink=\"http://www.w3.org/1999/xlink\" x=\"0px\" y=\"0px\"\n\t width=\"296.633px\" height=\"227.883px\" viewBox=\"0 0 296.633 227.883\" enable-background=\"new 0 0 296.633 227.883\"\n\t xml:space=\"preserve\">\n<path fill=\"none\" d=\"M2.662,1.793c8.266,53.25,2.802,171.963,5.305,226.067\"/>\n<path fill=\"none\" d=\"M1.031,222.146c67.199-9.078,213.034,6.17,279.931-5.306\"/>\n<path fill=\"none\" d=\"M290.581,0.007c-0.5,33.125-2.356,191.708-11.658,223.363\"/>\n<path fill=\"none\" d=\"M0.07,10.703C127.409-7.206,237.174,4.794,296.602,8.604\"/>\n</svg>\n",
                      "textAttributes" : {
                        "type" : "textAttributeList",
                        "keyframes" : [
                          {
                            "time" : 0,
                            "value" : null,
                            "duration" : 0
                          }
                        ]
                      }
                    },
                    "attributes" : {
                      "autoRotateText" : true
                    },
                    "parameters" : {
                      "translation0" : -196.407622739085,
                      "translation1" : -156.211886304812,
                      "scale0" : 1.99398601765588,
                      "scale1" : 0.336419753086286
                    },
                    "leftEdgeMods" : [
                      {
                        "group" : "DrawPercentageFade",
                        "duration" : 30,
                        "parameters" : [
                          {
                            "name" : "DrawTime",
                              "func" : "FadeInFunc"
                            }
                        ]
                      }
                    ],
                    "effects" : [
                        {
                          "effectName" : "DropShadow",
                          "category" : "categoryVisualEffects",
                          "parameters" : {
                            "angle" : 5.49778714378214,
                            "blur" : 10.0,
                            "color-alpha" : 1.0,
                            "color-blue" : 0.1216,
                            "color-green" : 0.1216,
                            "color-red" : 0.1216,
                            "enabled" : 1,
                            "offset" : 10.0,
                            "opacity" : 0.4
                          }
                        }
                    ],
                    "start" : 1801,
                    "duration" : 49,
                    "mediaStart" : 0,
                    "mediaDuration" : 49,
                    "scalar" : 1,
                    "metadata" : {
                      "WinSubProjectDisplayName" : "",
                      "clipSpeedAttribute" : false,
                      "default-scale0" : 1.0,
                      "default-scale1" : 1.0,
                      "default-translation0" : 0.0,
                      "default-translation1" : 0.0
                    },
                    "animationTracks" : {

                    }
                  },
                  {
                    "id" : 73,
                    "_type" : "Callout",
                    "def" : {
                      "kind" : "TypeWinSVG",
                      "shape" : "",
                      "style" : "",
                      "DrawTime" : 1.0,
                      "borderColorBlue" : 0.0,
                      "borderColorGreen" : 0.0,
                      "borderColorRed" : 1.0,
                      "borderWidth" : 5.0,
                      "flipOnXAxis" : 0.0,
                      "flipOnYAxis" : 0.0,
                      "height" : 144.0,
                      "width" : 197.0,
                      "filename" : "C:\\Program Files\\TechSmith\\Camtasia 9\\Media\\Studio\\Callouts\\anim_drawnsquare.svg",
                      "horizontal-alignment" : "center",
                      "name" : "Sketch Motion Rectangle",
                      "vertical-alignment" : "center",
                      "xmlContent" : "﻿<?xml version=\"1.0\" encoding=\"utf-8\"?>\n<!-- Generator: Adobe Illustrator 13.0.2, SVG Export Plug-In . SVG Version: 6.00 Build 14948)  -->\n<!DOCTYPE svg PUBLIC \"-//W3C//DTD SVG 1.1//EN\" \"http://www.w3.org/Graphics/SVG/1.1/DTD/svg11.dtd\">\n<svg version=\"1.1\" id=\"Layer_1\" xmlns=\"http://www.w3.org/2000/svg\" xmlns:xlink=\"http://www.w3.org/1999/xlink\" x=\"0px\" y=\"0px\"\n\t width=\"296.633px\" height=\"227.883px\" viewBox=\"0 0 296.633 227.883\" enable-background=\"new 0 0 296.633 227.883\"\n\t xml:space=\"preserve\">\n<path fill=\"none\" d=\"M2.662,1.793c8.266,53.25,2.802,171.963,5.305,226.067\"/>\n<path fill=\"none\" d=\"M1.031,222.146c67.199-9.078,213.034,6.17,279.931-5.306\"/>\n<path fill=\"none\" d=\"M290.581,0.007c-0.5,33.125-2.356,191.708-11.658,223.363\"/>\n<path fill=\"none\" d=\"M0.07,10.703C127.409-7.206,237.174,4.794,296.602,8.604\"/>\n</svg>\n",
                      "textAttributes" : {
                        "type" : "textAttributeList",
                        "keyframes" : [
                          {
                            "time" : 0,
                            "value" : null,
                            "duration" : 0
                          }
                        ]
                      }
                    },
                    "attributes" : {
                      "autoRotateText" : true
                    },
                    "parameters" : {
                      "translation0" : -445.917312661612,
                      "translation1" : 284.211886305182,
                      "scale0" : 0.430475216096206,
                      "scale1" : 0.274691358024425
                    },
                    "leftEdgeMods" : [
                      {
                        "group" : "DrawPercentageFade",
                        "duration" : 19,
                        "parameters" : [
                          {
                            "name" : "DrawTime",
                              "func" : "FadeInFunc"
                            }
                        ]
                      }
                    ],
                    "effects" : [
                        {
                          "effectName" : "DropShadow",
                          "category" : "categoryVisualEffects",
                          "parameters" : {
                            "angle" : 5.49778714378214,
                            "blur" : 10.0,
                            "color-alpha" : 1.0,
                            "color-blue" : 0.1216,
                            "color-green" : 0.1216,
                            "color-red" : 0.1216,
                            "enabled" : 1,
                            "offset" : 10.0,
                            "opacity" : 0.4
                          }
                        }
                    ],
                    "start" : 2569,
                    "duration" : 19,
                    "mediaStart" : 0,
                    "mediaDuration" : 19,
                    "scalar" : 1,
                    "metadata" : {
                      "WinSubProjectDisplayName" : "",
                      "clipSpeedAttribute" : false,
                      "default-scale0" : 1.0,
                      "default-scale1" : 1.0,
                      "default-translation0" : 0.0,
                      "default-translation1" : 0.0
                    },
                    "animationTracks" : {

                    }
                  },
                  {
                    "id" : 74,
                    "_type" : "Callout",
                    "def" : {
                      "kind" : "TypeWinSVG",
                      "shape" : "",
                      "style" : "",
                      "DrawTime" : 1.0,
                      "borderColorBlue" : 0.0,
                      "borderColorGreen" : 0.0,
                      "borderColorRed" : 1.0,
                      "borderWidth" : 5.0,
                      "flipOnXAxis" : 0.0,
                      "flipOnYAxis" : 0.0,
                      "height" : 144.0,
                      "width" : 197.0,
                      "filename" : "C:\\Program Files\\TechSmith\\Camtasia 9\\Media\\Studio\\Callouts\\anim_drawnsquare.svg",
                      "horizontal-alignment" : "center",
                      "name" : "Sketch Motion Rectangle",
                      "vertical-alignment" : "center",
                      "xmlContent" : "﻿<?xml version=\"1.0\" encoding=\"utf-8\"?>\n<!-- Generator: Adobe Illustrator 13.0.2, SVG Export Plug-In . SVG Version: 6.00 Build 14948)  -->\n<!DOCTYPE svg PUBLIC \"-//W3C//DTD SVG 1.1//EN\" \"http://www.w3.org/Graphics/SVG/1.1/DTD/svg11.dtd\">\n<svg version=\"1.1\" id=\"Layer_1\" xmlns=\"http://www.w3.org/2000/svg\" xmlns:xlink=\"http://www.w3.org/1999/xlink\" x=\"0px\" y=\"0px\"\n\t width=\"296.633px\" height=\"227.883px\" viewBox=\"0 0 296.633 227.883\" enable-background=\"new 0 0 296.633 227.883\"\n\t xml:space=\"preserve\">\n<path fill=\"none\" d=\"M2.662,1.793c8.266,53.25,2.802,171.963,5.305,226.067\"/>\n<path fill=\"none\" d=\"M1.031,222.146c67.199-9.078,213.034,6.17,279.931-5.306\"/>\n<path fill=\"none\" d=\"M290.581,0.007c-0.5,33.125-2.356,191.708-11.658,223.363\"/>\n<path fill=\"none\" d=\"M0.07,10.703C127.409-7.206,237.174,4.794,296.602,8.604\"/>\n</svg>\n",
                      "textAttributes" : {
                        "type" : "textAttributeList",
                        "keyframes" : [
                          {
                            "time" : 0,
                            "value" : null,
                            "duration" : 0
                          }
                        ]
                      }
                    },
                    "attributes" : {
                      "autoRotateText" : true
                    },
                    "parameters" : {
                      "translation0" : -439.298449612545,
                      "translation1" : 260.671834625408,
                      "scale0" : 0.519668411181196,
                      "scale1" : 0.22839506172744
                    },
                    "leftEdgeMods" : [
                      {
                        "group" : "DrawPercentageFade",
                        "duration" : 21,
                        "parameters" : [
                          {
                            "name" : "DrawTime",
                              "func" : "FadeInFunc"
                            }
                        ]
                      }
                    ],
                    "effects" : [
                        {
                          "effectName" : "DropShadow",
                          "category" : "categoryVisualEffects",
                          "parameters" : {
                            "angle" : 5.49778714378214,
                            "blur" : 10.0,
                            "color-alpha" : 1.0,
                            "color-blue" : 0.1216,
                            "color-green" : 0.1216,
                            "color-red" : 0.1216,
                            "enabled" : 1,
                            "offset" : 10.0,
                            "opacity" : 0.4
                          }
                        }
                    ],
                    "start" : 2588,
                    "duration" : 21,
                    "mediaStart" : 0,
                    "mediaDuration" : 21,
                    "scalar" : 1,
                    "metadata" : {
                      "WinSubProjectDisplayName" : "",
                      "clipSpeedAttribute" : false,
                      "default-scale0" : 1.0,
                      "default-scale1" : 1.0,
                      "default-translation0" : 0.0,
                      "default-translation1" : 0.0
                    },
                    "animationTracks" : {

                    }
                  },
                  {
                    "id" : 75,
                    "_type" : "Callout",
                    "def" : {
                      "kind" : "TypeWinSVG",
                      "shape" : "",
                      "style" : "",
                      "DrawTime" : 1.0,
                      "borderColorBlue" : 0.0,
                      "borderColorGreen" : 0.0,
                      "borderColorRed" : 1.0,
                      "borderWidth" : 5.0,
                      "flipOnXAxis" : 0.0,
                      "flipOnYAxis" : 0.0,
                      "height" : 144.0,
                      "width" : 197.0,
                      "filename" : "C:\\Program Files\\TechSmith\\Camtasia 9\\Media\\Studio\\Callouts\\anim_drawnsquare.svg",
                      "horizontal-alignment" : "center",
                      "name" : "Sketch Motion Rectangle",
                      "vertical-alignment" : "center",
                      "xmlContent" : "﻿<?xml version=\"1.0\" encoding=\"utf-8\"?>\n<!-- Generator: Adobe Illustrator 13.0.2, SVG Export Plug-In . SVG Version: 6.00 Build 14948)  -->\n<!DOCTYPE svg PUBLIC \"-//W3C//DTD SVG 1.1//EN\" \"http://www.w3.org/Graphics/SVG/1.1/DTD/svg11.dtd\">\n<svg version=\"1.1\" id=\"Layer_1\" xmlns=\"http://www.w3.org/2000/svg\" xmlns:xlink=\"http://www.w3.org/1999/xlink\" x=\"0px\" y=\"0px\"\n\t width=\"296.633px\" height=\"227.883px\" viewBox=\"0 0 296.633 227.883\" enable-background=\"new 0 0 296.633 227.883\"\n\t xml:space=\"preserve\">\n<path fill=\"none\" d=\"M2.662,1.793c8.266,53.25,2.802,171.963,5.305,226.067\"/>\n<path fill=\"none\" d=\"M1.031,222.146c67.199-9.078,213.034,6.17,279.931-5.306\"/>\n<path fill=\"none\" d=\"M290.581,0.007c-0.5,33.125-2.356,191.708-11.658,223.363\"/>\n<path fill=\"none\" d=\"M0.07,10.703C127.409-7.206,237.174,4.794,296.602,8.604\"/>\n</svg>\n",
                      "textAttributes" : {
                        "type" : "textAttributeList",
                        "keyframes" : [
                          {
                            "time" : 0,
                            "value" : null,
                            "duration" : 0
                          }
                        ]
                      }
                    },
                    "attributes" : {
                      "autoRotateText" : true
                    },
                    "parameters" : {
                      "translation0" : -348.8372093024,
                      "translation1" : 269.967848894396,
                      "scale0" : 1.11542648775571,
                      "scale1" : 0.305555555555465
                    },
                    "leftEdgeMods" : [
                      {
                        "group" : "DrawPercentageFade",
                        "duration" : 30,
                        "parameters" : [
                          {
                            "name" : "DrawTime",
                              "func" : "FadeInFunc"
                            }
                        ]
                      }
                    ],
                    "effects" : [
                        {
                          "effectName" : "DropShadow",
                          "category" : "categoryVisualEffects",
                          "parameters" : {
                            "angle" : 5.49778714378214,
                            "blur" : 10.0,
                            "color-alpha" : 1.0,
                            "color-blue" : 0.1216,
                            "color-green" : 0.1216,
                            "color-red" : 0.1216,
                            "enabled" : 1,
                            "offset" : 10.0,
                            "opacity" : 0.4
                          }
                        }
                    ],
                    "start" : 3180,
                    "duration" : 37,
                    "mediaStart" : 0,
                    "mediaDuration" : 37,
                    "scalar" : 1,
                    "metadata" : {
                      "WinSubProjectDisplayName" : "",
                      "clipSpeedAttribute" : false,
                      "default-scale0" : 1.0,
                      "default-scale1" : 1.0,
                      "default-translation0" : 0.0,
                      "default-translation1" : 0.0
                    },
                    "animationTracks" : {

                    }
                  },
                  {
                    "id" : 76,
                    "_type" : "Callout",
                    "def" : {
                      "kind" : "TypeWinSVG",
                      "shape" : "",
                      "style" : "",
                      "DrawTime" : 1.0,
                      "borderColorBlue" : 0.0,
                      "borderColorGreen" : 0.0,
                      "borderColorRed" : 1.0,
                      "borderWidth" : 5.0,
                      "flipOnXAxis" : 0.0,
                      "flipOnYAxis" : 0.0,
                      "height" : 144.0,
                      "width" : 197.0,
                      "filename" : "C:\\Program Files\\TechSmith\\Camtasia 9\\Media\\Studio\\Callouts\\anim_drawnsquare.svg",
                      "horizontal-alignment" : "center",
                      "name" : "Sketch Motion Rectangle",
                      "vertical-alignment" : "center",
                      "xmlContent" : "﻿<?xml version=\"1.0\" encoding=\"utf-8\"?>\n<!-- Generator: Adobe Illustrator 13.0.2, SVG Export Plug-In . SVG Version: 6.00 Build 14948)  -->\n<!DOCTYPE svg PUBLIC \"-//W3C//DTD SVG 1.1//EN\" \"http://www.w3.org/Graphics/SVG/1.1/DTD/svg11.dtd\">\n<svg version=\"1.1\" id=\"Layer_1\" xmlns=\"http://www.w3.org/2000/svg\" xmlns:xlink=\"http://www.w3.org/1999/xlink\" x=\"0px\" y=\"0px\"\n\t width=\"296.633px\" height=\"227.883px\" viewBox=\"0 0 296.633 227.883\" enable-background=\"new 0 0 296.633 227.883\"\n\t xml:space=\"preserve\">\n<path fill=\"none\" d=\"M2.662,1.793c8.266,53.25,2.802,171.963,5.305,226.067\"/>\n<path fill=\"none\" d=\"M1.031,222.146c67.199-9.078,213.034,6.17,279.931-5.306\"/>\n<path fill=\"none\" d=\"M290.581,0.007c-0.5,33.125-2.356,191.708-11.658,223.363\"/>\n<path fill=\"none\" d=\"M0.07,10.703C127.409-7.206,237.174,4.794,296.602,8.604\"/>\n</svg>\n",
                      "textAttributes" : {
                        "type" : "textAttributeList",
                        "keyframes" : [
                          {
                            "time" : 0,
                            "value" : null,
                            "duration" : 0
                          }
                        ]
                      }
                    },
                    "attributes" : {
                      "autoRotateText" : true
                    },
                    "parameters" : {
                      "translation0" : 137.956072351109,
                      "translation1" : 144.289405684915,
                      "scale0" : 0.379582628311721,
                      "scale1" : 0.320987654320306
                    },
                    "leftEdgeMods" : [
                      {
                        "group" : "DrawPercentageFade",
                        "duration" : 30,
                        "parameters" : [
                          {
                            "name" : "DrawTime",
                              "func" : "FadeInFunc"
                            }
                        ]
                      }
                    ],
                    "effects" : [
                        {
                          "effectName" : "DropShadow",
                          "category" : "categoryVisualEffects",
                          "parameters" : {
                            "angle" : 5.49778714378214,
                            "blur" : 10.0,
                            "color-alpha" : 1.0,
                            "color-blue" : 0.1216,
                            "color-green" : 0.1216,
                            "color-red" : 0.1216,
                            "enabled" : 1,
                            "offset" : 10.0,
                            "opacity" : 0.4
                          }
                        }
                    ],
                    "start" : 3217,
                    "duration" : 30,
                    "mediaStart" : -15,
                    "mediaDuration" : 30,
                    "scalar" : 1,
                    "metadata" : {
                      "WinSubProjectDisplayName" : "",
                      "clipSpeedAttribute" : false,
                      "default-scale0" : 1.0,
                      "default-scale1" : 1.0,
                      "default-translation0" : 0.0,
                      "default-translation1" : 0.0
                    },
                    "animationTracks" : {

                    }
                  },
                  {
                    "id" : 77,
                    "_type" : "Callout",
                    "def" : {
                      "kind" : "TypeWinSVG",
                      "shape" : "",
                      "style" : "",
                      "DrawTime" : 1.0,
                      "borderColorBlue" : 0.0,
                      "borderColorGreen" : 0.0,
                      "borderColorRed" : 1.0,
                      "borderWidth" : 5.0,
                      "flipOnXAxis" : 0.0,
                      "flipOnYAxis" : 0.0,
                      "height" : 144.0,
                      "width" : 197.0,
                      "filename" : "C:\\Program Files\\TechSmith\\Camtasia 9\\Media\\Studio\\Callouts\\anim_drawnsquare.svg",
                      "horizontal-alignment" : "center",
                      "name" : "Sketch Motion Rectangle",
                      "vertical-alignment" : "center",
                      "xmlContent" : "﻿<?xml version=\"1.0\" encoding=\"utf-8\"?>\n<!-- Generator: Adobe Illustrator 13.0.2, SVG Export Plug-In . SVG Version: 6.00 Build 14948)  -->\n<!DOCTYPE svg PUBLIC \"-//W3C//DTD SVG 1.1//EN\" \"http://www.w3.org/Graphics/SVG/1.1/DTD/svg11.dtd\">\n<svg version=\"1.1\" id=\"Layer_1\" xmlns=\"http://www.w3.org/2000/svg\" xmlns:xlink=\"http://www.w3.org/1999/xlink\" x=\"0px\" y=\"0px\"\n\t width=\"296.633px\" height=\"227.883px\" viewBox=\"0 0 296.633 227.883\" enable-background=\"new 0 0 296.633 227.883\"\n\t xml:space=\"preserve\">\n<path fill=\"none\" d=\"M2.662,1.793c8.266,53.25,2.802,171.963,5.305,226.067\"/>\n<path fill=\"none\" d=\"M1.031,222.146c67.199-9.078,213.034,6.17,279.931-5.306\"/>\n<path fill=\"none\" d=\"M290.581,0.007c-0.5,33.125-2.356,191.708-11.658,223.363\"/>\n<path fill=\"none\" d=\"M0.07,10.703C127.409-7.206,237.174,4.794,296.602,8.604\"/>\n</svg>\n",
                      "textAttributes" : {
                        "type" : "textAttributeList",
                        "keyframes" : [
                          {
                            "time" : 0,
                            "value" : null,
                            "duration" : 0
                          }
                        ]
                      }
                    },
                    "attributes" : {
                      "autoRotateText" : true
                    },
                    "parameters" : {
                      "translation0" : 208.811369508788,
                      "translation1" : 102.454780361842,
                      "scale0" : 0.612009601383735,
                      "scale1" : 0.336419753086199
                    },
                    "leftEdgeMods" : [
                      {
                        "group" : "DrawPercentageFade",
                        "duration" : 30,
                        "parameters" : [
                          {
                            "name" : "DrawTime",
                              "func" : "FadeInFunc"
                            }
                        ]
                      }
                    ],
                    "effects" : [
                        {
                          "effectName" : "DropShadow",
                          "category" : "categoryVisualEffects",
                          "parameters" : {
                            "angle" : 5.49778714378214,
                            "blur" : 10.0,
                            "color-alpha" : 1.0,
                            "color-blue" : 0.1216,
                            "color-green" : 0.1216,
                            "color-red" : 0.1216,
                            "enabled" : 1,
                            "offset" : 10.0,
                            "opacity" : 0.4
                          }
                        }
                    ],
                    "start" : 3247,
                    "duration" : 42,
                    "mediaStart" : 0,
                    "mediaDuration" : 42,
                    "scalar" : 1,
                    "metadata" : {
                      "WinSubProjectDisplayName" : "",
                      "clipSpeedAttribute" : false,
                      "default-scale0" : 1.0,
                      "default-scale1" : 1.0,
                      "default-translation0" : 0.0,
                      "default-translation1" : 0.0
                    },
                    "animationTracks" : {

                    }
                  },
                  {
                    "id" : 78,
                    "_type" : "Callout",
                    "def" : {
                      "kind" : "TypeWinSVG",
                      "shape" : "",
                      "style" : "",
                      "DrawTime" : 1.0,
                      "borderColorBlue" : 0.0,
                      "borderColorGreen" : 0.0,
                      "borderColorRed" : 1.0,
                      "borderWidth" : 5.0,
                      "flipOnXAxis" : 0.0,
                      "flipOnYAxis" : 0.0,
                      "height" : 144.0,
                      "width" : 197.0,
                      "filename" : "C:\\Program Files\\TechSmith\\Camtasia 9\\Media\\Studio\\Callouts\\anim_drawnsquare.svg",
                      "horizontal-alignment" : "center",
                      "name" : "Sketch Motion Rectangle",
                      "vertical-alignment" : "center",
                      "xmlContent" : "﻿<?xml version=\"1.0\" encoding=\"utf-8\"?>\n<!-- Generator: Adobe Illustrator 13.0.2, SVG Export Plug-In . SVG Version: 6.00 Build 14948)  -->\n<!DOCTYPE svg PUBLIC \"-//W3C//DTD SVG 1.1//EN\" \"http://www.w3.org/Graphics/SVG/1.1/DTD/svg11.dtd\">\n<svg version=\"1.1\" id=\"Layer_1\" xmlns=\"http://www.w3.org/2000/svg\" xmlns:xlink=\"http://www.w3.org/1999/xlink\" x=\"0px\" y=\"0px\"\n\t width=\"296.633px\" height=\"227.883px\" viewBox=\"0 0 296.633 227.883\" enable-background=\"new 0 0 296.633 227.883\"\n\t xml:space=\"preserve\">\n<path fill=\"none\" d=\"M2.662,1.793c8.266,53.25,2.802,171.963,5.305,226.067\"/>\n<path fill=\"none\" d=\"M1.031,222.146c67.199-9.078,213.034,6.17,279.931-5.306\"/>\n<path fill=\"none\" d=\"M290.581,0.007c-0.5,33.125-2.356,191.708-11.658,223.363\"/>\n<path fill=\"none\" d=\"M0.07,10.703C127.409-7.206,237.174,4.794,296.602,8.604\"/>\n</svg>\n",
                      "textAttributes" : {
                        "type" : "textAttributeList",
                        "keyframes" : [
                          {
                            "time" : 0,
                            "value" : null,
                            "duration" : 0
                          }
                        ]
                      }
                    },
                    "attributes" : {
                      "autoRotateText" : true
                    },
                    "parameters" : {
                      "translation0" : 175.813953488436,
                      "translation1" : 61.8346253231061,
                      "scale0" : 0.394010939283198,
                      "scale1" : 0.274691358024037
                    },
                    "leftEdgeMods" : [
                      {
                        "group" : "DrawPercentageFade",
                        "duration" : 30,
                        "parameters" : [
                          {
                            "name" : "DrawTime",
                              "func" : "FadeInFunc"
                            }
                        ]
                      }
                    ],
                    "effects" : [
                        {
                          "effectName" : "DropShadow",
                          "category" : "categoryVisualEffects",
                          "parameters" : {
                            "angle" : 5.49778714378214,
                            "blur" : 10.0,
                            "color-alpha" : 1.0,
                            "color-blue" : 0.1216,
                            "color-green" : 0.1216,
                            "color-red" : 0.1216,
                            "enabled" : 1,
                            "offset" : 10.0,
                            "opacity" : 0.4
                          }
                        }
                    ],
                    "start" : 3289,
                    "duration" : 32,
                    "mediaStart" : 0,
                    "mediaDuration" : 32,
                    "scalar" : 1,
                    "metadata" : {
                      "WinSubProjectDisplayName" : "",
                      "clipSpeedAttribute" : false,
                      "default-scale0" : 1.0,
                      "default-scale1" : 1.0,
                      "default-translation0" : 0.0,
                      "default-translation1" : 0.0
                    },
                    "animationTracks" : {

                    }
                  },
                  {
                    "id" : 79,
                    "_type" : "Callout",
                    "def" : {
                      "kind" : "TypeWinSVG",
                      "shape" : "",
                      "style" : "",
                      "DrawTime" : 1.0,
                      "borderColorBlue" : 0.0,
                      "borderColorGreen" : 0.0,
                      "borderColorRed" : 1.0,
                      "borderWidth" : 5.0,
                      "flipOnXAxis" : 0.0,
                      "flipOnYAxis" : 0.0,
                      "height" : 144.0,
                      "width" : 197.0,
                      "filename" : "C:\\Program Files\\TechSmith\\Camtasia 9\\Media\\Studio\\Callouts\\anim_drawnperfectrectangle.svg",
                      "horizontal-alignment" : "center",
                      "name" : "Sketch Motion Perfect Rectangle",
                      "vertical-alignment" : "center",
                      "xmlContent" : "﻿<?xml version=\"1.0\" encoding=\"utf-8\"?>\n<!DOCTYPE svg PUBLIC \"-//W3C//DTD SVG 1.1//EN\" \"http://www.w3.org/Graphics/SVG/1.1/DTD/svg11.dtd\">\n<svg version=\"1.1\" x=\"0px\" y=\"0px\" width=\"100px\" height=\"100px\" xml:space=\"preserve\">\n<path fill=\"none\" d=\"M 10 10 L 10 90 L 90 90 L 90 10 Z\"/>\n</svg>\n",
                      "textAttributes" : {
                        "type" : "textAttributeList",
                        "keyframes" : [
                          {
                            "time" : 0,
                            "value" : null,
                            "duration" : 0
                          }
                        ]
                      }
                    },
                    "attributes" : {
                      "autoRotateText" : true
                    },
                    "parameters" : {
                      "translation0" : 79.9211886303256,
                      "translation1" : -91.291989663845,
                      "scale0" : 0.976652369520393,
                      "scale1" : 0.495765144991049
                    },
                    "leftEdgeMods" : [
                      {
                        "group" : "DrawPercentageFade",
                        "duration" : 30,
                        "parameters" : [
                          {
                            "name" : "DrawTime",
                              "func" : "FadeInFunc"
                            }
                        ]
                      }
                    ],
                    "effects" : [
                        {
                          "effectName" : "DropShadow",
                          "category" : "categoryVisualEffects",
                          "parameters" : {
                            "angle" : 5.49778714378214,
                            "blur" : 10.0,
                            "color-alpha" : 1.0,
                            "color-blue" : 0.1216,
                            "color-green" : 0.1216,
                            "color-red" : 0.1216,
                            "enabled" : 1,
                            "offset" : 10.0,
                            "opacity" : 0.4
                          }
                        }
                    ],
                    "start" : 3409,
                    "duration" : 34,
                    "mediaStart" : 0,
                    "mediaDuration" : 34,
                    "scalar" : 1,
                    "metadata" : {
                      "WinSubProjectDisplayName" : "",
                      "clipSpeedAttribute" : false,
                      "default-scale0" : 1.0,
                      "default-scale1" : 1.0,
                      "default-translation0" : 0.0,
                      "default-translation1" : 0.0
                    },
                    "animationTracks" : {

                    }
                  },
                  {
                    "id" : 80,
                    "_type" : "Callout",
                    "def" : {
                      "kind" : "TypeWinSVG",
                      "shape" : "",
                      "style" : "",
                      "DrawTime" : 1.0,
                      "borderColorBlue" : 0.0,
                      "borderColorGreen" : 0.0,
                      "borderColorRed" : 1.0,
                      "borderWidth" : 5.0,
                      "flipOnXAxis" : 0.0,
                      "flipOnYAxis" : 0.0,
                      "height" : 144.0,
                      "width" : 197.0,
                      "filename" : "C:\\Program Files\\TechSmith\\Camtasia 9\\Media\\Studio\\Callouts\\anim_x.svg",
                      "horizontal-alignment" : "center",
                      "name" : "Sketch Motion X",
                      "vertical-alignment" : "center",
                      "xmlContent" : "﻿<?xml version=\"1.0\" encoding=\"utf-8\"?>\n<!DOCTYPE svg PUBLIC \"-//W3C//DTD SVG 1.1//EN\" \"http://www.w3.org/Graphics/SVG/1.1/DTD/svg11.dtd\">\n<svg version=\"1.1\" id=\"Layer_1\" xmlns=\"http://www.w3.org/2000/svg\" xmlns:xlink=\"http://www.w3.org/1999/xlink\" x=\"0px\" y=\"0px\"\n\t width=\"128px\" height=\"109px\" viewBox=\"0 0 128 109\" enable-background=\"new 0 0 128 109\" xml:space=\"preserve\">\n<path fill=\"none\" d=\"M0,0 L100,100 M100,0 L0,100\"/>\n</svg>\n",
                      "textAttributes" : {
                        "type" : "textAttributeList",
                        "keyframes" : [
                          {
                            "time" : 0,
                            "value" : null,
                            "duration" : 0
                          }
                        ]
                      }
                    },
                    "attributes" : {
                      "autoRotateText" : true
                    },
                    "parameters" : {
                      "translation0" : 155.916020671651,
                      "translation1" : -126.098191214219,
                      "scale0" : 0.842075578116834,
                      "scale1" : 0.907407407405974
                    },
                    "leftEdgeMods" : [
                      {
                        "group" : "DrawPercentageFade",
                        "duration" : 30,
                        "parameters" : [
                          {
                            "name" : "DrawTime",
                              "func" : "FadeInFunc"
                            }
                        ]
                      }
                    ],
                    "effects" : [
                        {
                          "effectName" : "DropShadow",
                          "category" : "categoryVisualEffects",
                          "parameters" : {
                            "angle" : 5.49778714378214,
                            "blur" : 10.0,
                            "color-alpha" : 1.0,
                            "color-blue" : 0.1216,
                            "color-green" : 0.1216,
                            "color-red" : 0.1216,
                            "enabled" : 1,
                            "offset" : 10.0,
                            "opacity" : 0.4
                          }
                        }
                    ],
                    "start" : 3589,
                    "duration" : 65,
                    "mediaStart" : 47,
                    "mediaDuration" : 65,
                    "scalar" : 1,
                    "metadata" : {
                      "WinSubProjectDisplayName" : "",
                      "clipSpeedAttribute" : false,
                      "default-scale0" : 1.0,
                      "default-scale1" : 1.0,
                      "default-translation0" : 0.0,
                      "default-translation1" : 0.0
                    },
                    "animationTracks" : {

                    }
                  },
                  {
                    "id" : 81,
                    "_type" : "Callout",
                    "def" : {
                      "kind" : "remix",
                      "shape" : "arrow",
                      "style" : "abstract",
                      "stroke-color-blue" : 0.258823529411765,
                      "stroke-color-green" : 0.258823529411765,
                      "stroke-color-opacity" : 1.0,
                      "stroke-color-red" : 0.988235294117647,
                      "stroke-width" : 8.0,
                      "tail-x" : {
                        "type" : "double",
                        "defaultValue" : 120.930232558255,
                        "interp" : "eioe"
                      },
                      "tail-y" : {
                        "type" : "double",
                        "defaultValue" : 1.00555493024104e-11,
                        "interp" : "eioe"
                      },
                      "horizontal-alignment" : "center",
                      "shape-anchor" : "none",
                      "shape-tail" : "none",
                      "stroke-style" : "solid",
                      "vertical-alignment" : "center",
                      "textAttributes" : {
                        "type" : "textAttributeList",
                        "keyframes" : [
                          {
                            "time" : 0,
                            "value" : null,
                            "duration" : 0
                          }
                        ]
                      }
                    },
                    "attributes" : {
                      "autoRotateText" : true
                    },
                    "parameters" : {
                      "translation0" : 138.320413436597,
                      "translation1" : 247.751937984587
                    },
                    "effects" : [
                        {
                          "effectName" : "DropShadow",
                          "category" : "categoryVisualEffects",
                          "parameters" : {
                            "angle" : 5.49778714378214,
                            "blur" : 10.0,
                            "color-alpha" : 1.0,
                            "color-blue" : 0.1216,
                            "color-green" : 0.1216,
                            "color-red" : 0.1216,
                            "enabled" : 1,
                            "offset" : 10.0,
                            "opacity" : 0.4
                          }
                        }
                    ],
                    "start" : 4267,
                    "duration" : 31,
                    "mediaStart" : 0,
                    "mediaDuration" : 31,
                    "scalar" : 1,
                    "metadata" : {
                      "WinSubProjectDisplayName" : "",
                      "clipSpeedAttribute" : false,
                      "default-stroke-color-blue" : 0.615686274509804,
                      "default-stroke-color-green" : 0.647058823529412,
                      "default-stroke-color-red" : 0.337254901960784,
                      "default-translation0" : 0.0,
                      "default-translation1" : 0.0
                    },
                    "animationTracks" : {

                    }
                  },
                  {
                    "id" : 82,
                    "_type" : "Callout",
                    "def" : {
                      "kind" : "remix",
                      "shape" : "arrow",
                      "style" : "urban",
                      "stroke-color-blue" : 0.258823529411765,
                      "stroke-color-green" : 0.258823529411765,
                      "stroke-color-opacity" : 1.0,
                      "stroke-color-red" : 0.988235294117647,
                      "stroke-width" : 8.0,
                      "tail-x" : {
                        "type" : "double",
                        "defaultValue" : 113.377388063147,
                        "interp" : "eioe"
                      },
                      "tail-y" : {
                        "type" : "double",
                        "defaultValue" : 0.0,
                        "interp" : "eioe"
                      },
                      "horizontal-alignment" : "center",
                      "shape-anchor" : "none",
                      "shape-tail" : "none",
                      "stroke-style" : "solid",
                      "vertical-alignment" : "center",
                      "textAttributes" : {
                        "type" : "textAttributeList",
                        "keyframes" : [
                          {
                            "time" : 0,
                            "value" : null,
                            "duration" : 0
                          }
                        ]
                      }
                    },
                    "attributes" : {
                      "autoRotateText" : true
                    },
                    "parameters" : {
                      "translation0" : -121.059431524557,
                      "translation1" : 115.193798449732
                    },
                    "effects" : [
                        {
                          "effectName" : "DropShadow",
                          "category" : "categoryVisualEffects",
                          "parameters" : {
                            "angle" : 5.49778714378214,
                            "blur" : 10.0,
                            "color-alpha" : 1.0,
                            "color-blue" : 0.1216,
                            "color-green" : 0.1216,
                            "color-red" : 0.1216,
                            "enabled" : 1,
                            "offset" : 10.0,
                            "opacity" : 0.4
                          }
                        }
                    ],
                    "start" : 4306,
                    "duration" : 150,
                    "mediaStart" : 0,
                    "mediaDuration" : 150,
                    "scalar" : 1,
                    "metadata" : {
                      "WinSubProjectDisplayName" : "",
                      "clipSpeedAttribute" : false,
                      "default-stroke-color-blue" : 0.580392156862745,
                      "default-stroke-color-green" : 0.517647058823529,
                      "default-stroke-color-red" : 0.6,
                      "default-translation0" : 0.0,
                      "default-translation1" : 0.0
                    },
                    "animationTracks" : {

                    }
                  },
                  {
                    "id" : 83,
                    "_type" : "Callout",
                    "def" : {
                      "kind" : "TypeWinSVG",
                      "shape" : "",
                      "style" : "",
                      "DrawTime" : 1.0,
                      "borderColorBlue" : 0.0,
                      "borderColorGreen" : 0.0,
                      "borderColorRed" : 1.0,
                      "borderWidth" : 5.0,
                      "flipOnXAxis" : 0.0,
                      "flipOnYAxis" : 0.0,
                      "height" : 144.0,
                      "width" : 197.0,
                      "filename" : "C:\\Program Files\\TechSmith\\Camtasia 9\\Media\\Studio\\Callouts\\anim_drawnsquare.svg",
                      "horizontal-alignment" : "center",
                      "name" : "Sketch Motion Rectangle",
                      "vertical-alignment" : "center",
                      "xmlContent" : "﻿<?xml version=\"1.0\" encoding=\"utf-8\"?>\n<!-- Generator: Adobe Illustrator 13.0.2, SVG Export Plug-In . SVG Version: 6.00 Build 14948)  -->\n<!DOCTYPE svg PUBLIC \"-//W3C//DTD SVG 1.1//EN\" \"http://www.w3.org/Graphics/SVG/1.1/DTD/svg11.dtd\">\n<svg version=\"1.1\" id=\"Layer_1\" xmlns=\"http://www.w3.org/2000/svg\" xmlns:xlink=\"http://www.w3.org/1999/xlink\" x=\"0px\" y=\"0px\"\n\t width=\"296.633px\" height=\"227.883px\" viewBox=\"0 0 296.633 227.883\" enable-background=\"new 0 0 296.633 227.883\"\n\t xml:space=\"preserve\">\n<path fill=\"none\" d=\"M2.662,1.793c8.266,53.25,2.802,171.963,5.305,226.067\"/>\n<path fill=\"none\" d=\"M1.031,222.146c67.199-9.078,213.034,6.17,279.931-5.306\"/>\n<path fill=\"none\" d=\"M290.581,0.007c-0.5,33.125-2.356,191.708-11.658,223.363\"/>\n<path fill=\"none\" d=\"M0.07,10.703C127.409-7.206,237.174,4.794,296.602,8.604\"/>\n</svg>\n",
                      "textAttributes" : {
                        "type" : "textAttributeList",
                        "keyframes" : [
                          {
                            "time" : 0,
                            "value" : null,
                            "duration" : 0
                          }
                        ]
                      }
                    },
                    "attributes" : {
                      "autoRotateText" : true
                    },
                    "parameters" : {
                      "translation0" : 77.6485788111331,
                      "translation1" : -26.9659384541575,
                      "scale0" : 3.42684190505979,
                      "scale1" : 0.776414010911878
                    },
                    "leftEdgeMods" : [
                      {
                        "group" : "DrawPercentageFade",
                        "duration" : 30,
                        "parameters" : [
                          {
                            "name" : "DrawTime",
                              "func" : "FadeInFunc"
                            }
                        ]
                      }
                    ],
                    "effects" : [
                        {
                          "effectName" : "DropShadow",
                          "category" : "categoryVisualEffects",
                          "parameters" : {
                            "angle" : 5.49778714378214,
                            "blur" : 10.0,
                            "color-alpha" : 1.0,
                            "color-blue" : 0.1216,
                            "color-green" : 0.1216,
                            "color-red" : 0.1216,
                            "enabled" : 1,
                            "offset" : 10.0,
                            "opacity" : 0.4
                          }
                        }
                    ],
                    "start" : 4887,
                    "duration" : 150,
                    "mediaStart" : 0,
                    "mediaDuration" : 150,
                    "scalar" : 1,
                    "metadata" : {
                      "WinSubProjectDisplayName" : "",
                      "clipSpeedAttribute" : false,
                      "default-scale0" : 1.0,
                      "default-scale1" : 1.0,
                      "default-translation0" : 0.0,
                      "default-translation1" : 0.0
                    },
                    "animationTracks" : {

                    }
                  },
                  {
                    "id" : 84,
                    "_type" : "Callout",
                    "def" : {
                      "kind" : "TypeWinSVG",
                      "shape" : "",
                      "style" : "",
                      "DrawTime" : 1.0,
                      "borderColorBlue" : 0.0,
                      "borderColorGreen" : 0.0,
                      "borderColorRed" : 1.0,
                      "borderWidth" : 5.0,
                      "flipOnXAxis" : 0.0,
                      "flipOnYAxis" : 0.0,
                      "height" : 144.0,
                      "width" : 197.0,
                      "filename" : "C:\\Program Files\\TechSmith\\Camtasia 9\\Media\\Studio\\Callouts\\anim_drawnsquare.svg",
                      "horizontal-alignment" : "center",
                      "name" : "Sketch Motion Rectangle",
                      "vertical-alignment" : "center",
                      "xmlContent" : "﻿<?xml version=\"1.0\" encoding=\"utf-8\"?>\n<!-- Generator: Adobe Illustrator 13.0.2, SVG Export Plug-In . SVG Version: 6.00 Build 14948)  -->\n<!DOCTYPE svg PUBLIC \"-//W3C//DTD SVG 1.1//EN\" \"http://www.w3.org/Graphics/SVG/1.1/DTD/svg11.dtd\">\n<svg version=\"1.1\" id=\"Layer_1\" xmlns=\"http://www.w3.org/2000/svg\" xmlns:xlink=\"http://www.w3.org/1999/xlink\" x=\"0px\" y=\"0px\"\n\t width=\"296.633px\" height=\"227.883px\" viewBox=\"0 0 296.633 227.883\" enable-background=\"new 0 0 296.633 227.883\"\n\t xml:space=\"preserve\">\n<path fill=\"none\" d=\"M2.662,1.793c8.266,53.25,2.802,171.963,5.305,226.067\"/>\n<path fill=\"none\" d=\"M1.031,222.146c67.199-9.078,213.034,6.17,279.931-5.306\"/>\n<path fill=\"none\" d=\"M290.581,0.007c-0.5,33.125-2.356,191.708-11.658,223.363\"/>\n<path fill=\"none\" d=\"M0.07,10.703C127.409-7.206,237.174,4.794,296.602,8.604\"/>\n</svg>\n",
                      "textAttributes" : {
                        "type" : "textAttributeList",
                        "keyframes" : [
                          {
                            "time" : 0,
                            "value" : null,
                            "duration" : 0
                          }
                        ]
                      }
                    },
                    "attributes" : {
                      "autoRotateText" : true
                    },
                    "parameters" : {
                      "translation0" : 144.315245478036,
                      "translation1" : -141.963824289177,
                      "scale0" : 2.58999986883606,
                      "scale1" : 0.256388171117069
                    },
                    "leftEdgeMods" : [
                      {
                        "group" : "DrawPercentageFade",
                        "duration" : 30,
                        "parameters" : [
                          {
                            "name" : "DrawTime",
                              "func" : "FadeInFunc"
                            }
                        ]
                      }
                    ],
                    "effects" : [
                        {
                          "effectName" : "DropShadow",
                          "category" : "categoryVisualEffects",
                          "parameters" : {
                            "angle" : 5.49778714378214,
                            "blur" : 10.0,
                            "color-alpha" : 1.0,
                            "color-blue" : 0.1216,
                            "color-green" : 0.1216,
                            "color-red" : 0.1216,
                            "enabled" : 1,
                            "offset" : 10.0,
                            "opacity" : 0.4
                          }
                        }
                    ],
                    "start" : 5695,
                    "duration" : 242,
                    "mediaStart" : -92,
                    "mediaDuration" : 242,
                    "scalar" : 1,
                    "metadata" : {
                      "WinSubProjectDisplayName" : "",
                      "clipSpeedAttribute" : false,
                      "default-scale0" : 1.0,
                      "default-scale1" : 1.0,
                      "default-translation0" : 0.0,
                      "default-translation1" : 0.0
                    },
                    "animationTracks" : {

                    }
                  }
                ]
              },
              {
                "trackIndex" : 5,
                "medias" : [
                  {
                    "id" : 85,
                    "_type" : "Callout",
                    "def" : {
                      "kind" : "TypeWinSVG",
                      "shape" : "",
                      "style" : "",
                      "DrawTime" : 1.0,
                      "borderColorBlue" : 0.0,
                      "borderColorGreen" : 0.0,
                      "borderColorRed" : 1.0,
                      "borderWidth" : 5.0,
                      "flipOnXAxis" : 0.0,
                      "flipOnYAxis" : 0.0,
                      "height" : 144.0,
                      "width" : 197.0,
                      "filename" : "C:\\Program Files\\TechSmith\\Camtasia 9\\Media\\Studio\\Callouts\\anim_drawnsquare.svg",
                      "horizontal-alignment" : "center",
                      "name" : "Sketch Motion Rectangle",
                      "vertical-alignment" : "center",
                      "xmlContent" : "﻿<?xml version=\"1.0\" encoding=\"utf-8\"?>\n<!-- Generator: Adobe Illustrator 13.0.2, SVG Export Plug-In . SVG Version: 6.00 Build 14948)  -->\n<!DOCTYPE svg PUBLIC \"-//W3C//DTD SVG 1.1//EN\" \"http://www.w3.org/Graphics/SVG/1.1/DTD/svg11.dtd\">\n<svg version=\"1.1\" id=\"Layer_1\" xmlns=\"http://www.w3.org/2000/svg\" xmlns:xlink=\"http://www.w3.org/1999/xlink\" x=\"0px\" y=\"0px\"\n\t width=\"296.633px\" height=\"227.883px\" viewBox=\"0 0 296.633 227.883\" enable-background=\"new 0 0 296.633 227.883\"\n\t xml:space=\"preserve\">\n<path fill=\"none\" d=\"M2.662,1.793c8.266,53.25,2.802,171.963,5.305,226.067\"/>\n<path fill=\"none\" d=\"M1.031,222.146c67.199-9.078,213.034,6.17,279.931-5.306\"/>\n<path fill=\"none\" d=\"M290.581,0.007c-0.5,33.125-2.356,191.708-11.658,223.363\"/>\n<path fill=\"none\" d=\"M0.07,10.703C127.409-7.206,237.174,4.794,296.602,8.604\"/>\n</svg>\n",
                      "textAttributes" : {
                        "type" : "textAttributeList",
                        "keyframes" : [
                          {
                            "time" : 0,
                            "value" : null,
                            "duration" : 0
                          }
                        ]
                      }
                    },
                    "attributes" : {
                      "autoRotateText" : true
                    },
                    "parameters" : {
                      "translation0" : -156.639534883835,
                      "translation1" : -130.749354004863,
                      "scale1" : 0.907407407405917
                    },
                    "leftEdgeMods" : [
                      {
                        "group" : "DrawPercentageFade",
                        "duration" : 30,
                        "parameters" : [
                          {
                            "name" : "DrawTime",
                              "func" : "FadeInFunc"
                            }
                        ]
                      }
                    ],
                    "effects" : [
                        {
                          "effectName" : "DropShadow",
                          "category" : "categoryVisualEffects",
                          "parameters" : {
                            "angle" : 5.49778714378214,
                            "blur" : 10.0,
                            "color-alpha" : 1.0,
                            "color-blue" : 0.1216,
                            "color-green" : 0.1216,
                            "color-red" : 0.1216,
                            "enabled" : 1,
                            "offset" : 10.0,
                            "opacity" : 0.4
                          }
                        }
                    ],
                    "start" : 3542,
                    "duration" : 82,
                    "mediaStart" : 0,
                    "mediaDuration" : 82,
                    "scalar" : 1,
                    "metadata" : {
                      "WinSubProjectDisplayName" : "",
                      "clipSpeedAttribute" : false,
                      "default-scale1" : 1.0,
                      "default-translation0" : 0.0,
                      "default-translation1" : 0.0
                    },
                    "animationTracks" : {

                    }
                  }
                ]
              },
              {
                "trackIndex" : 6,
                "medias" : [
                ]
              },
              {
                "trackIndex" : 7,
                "medias" : [
                ]
              }
            ]
          }
        }
      ]
    },
    "trackAttributes" : [
      {
        "ident" : "",
        "audioMuted" : false,
        "videoHidden" : false,
        "metadata" : {
          "IsLocked" : "False",
          "WinTrackHeight" : "56"
        }
      },
      {
        "ident" : "",
        "audioMuted" : false,
        "videoHidden" : false,
        "metadata" : {
          "IsLocked" : "False",
          "WinTrackHeight" : "56"
        }
      },
      {
        "ident" : "",
        "audioMuted" : false,
        "videoHidden" : false,
        "metadata" : {
          "IsLocked" : "False",
          "WinTrackHeight" : "56"
        }
      },
      {
        "ident" : "",
        "audioMuted" : false,
        "videoHidden" : false,
        "metadata" : {
          "IsLocked" : "False",
          "WinTrackHeight" : "56"
        }
      },
      {
        "ident" : "",
        "audioMuted" : false,
        "videoHidden" : false,
        "metadata" : {
          "IsLocked" : "False",
          "WinTrackHeight" : "56"
        }
      },
      {
        "ident" : "",
        "audioMuted" : false,
        "videoHidden" : false,
        "metadata" : {
          "IsLocked" : "False",
          "WinTrackHeight" : "56"
        }
      },
      {
        "ident" : "",
        "audioMuted" : false,
        "videoHidden" : false,
        "metadata" : {
          "IsLocked" : "False",
          "WinTrackHeight" : "56"
        }
      },
      {
        "ident" : "",
        "audioMuted" : false,
        "videoHidden" : false,
        "metadata" : {
          "IsLocked" : "False",
          "WinTrackHeight" : "56"
        }
      }
    ],
    "captionAttributes" : {
      "enabled" : true,
      "fontName" : "Arial",
      "fontSize" : 42,
      "backgroundColor" : [ 0, 0, 0, 191],
      "foregroundColor" : [ 255, 255, 255, 255],
      "lang" : "en",
      "alignment" : 0,
      "defaultFontSize" : true,
      "opacity" : 0.5,
      "backgroundEnabled" : true,
      "backgroundOnlyAroundText" : true
    },
    "backgroundColor" : [ 0, 0, 0, 255]
  },
  "metadata" : {
    "AutoSaveFile" : "C:\\Users\\edwar\\AppData\\Local\\TechSmith\\Camtasia Studio\\9.0\\Auto-Saves\\Prerequisites7b12c94.autosave.tscproj",
    "CanvasZoom" : 43,
    "Date" : "2018-06-13 12:39:21 PM",
    "IsAutoSave" : "0",
    "Language" : "ENU",
    "ProfileName" : "MP4 with Smart Player (up to 720p)",
    "ProjectDimensionsChanged" : "1",
    "Title" : "Prerequisites",
    "audioNarrationNotes" : "",
    "calloutStyle" : "All",
    "canvasDetached" : "False",
    "canvasPositionHeight" : "0",
    "canvasPositionLeft" : "0",
    "canvasPositionTop" : "0",
    "canvasPositionWidth" : "0"
  }
}
